<svg width="55" height="32" viewBox="0 0 55 32" fill="none" xmlns="http://www.w3.org/2000/svg">
<path d="M40.1707 23.9231C38.9144 23.9231 37.8924 22.8635 37.8924 21.5619C37.8924 20.2604 38.9144 19.2017 40.1707 19.2017C41.4272 19.2017 42.4492 20.2602 42.4492 21.5619C42.4492 22.8637 41.4272 23.9231 40.1707 23.9231ZM14.9873 23.9231C13.7309 23.9231 12.709 22.8635 12.709 21.5619C12.709 20.2604 13.7307 19.2017 14.9873 19.2017C16.2436 19.2017 17.2655 20.2602 17.2655 21.5619C17.2655 22.8637 16.2438 23.9231 14.9873 23.9231ZM40.9879 9.70451L45.5415 1.53415C45.6668 1.30866 45.7007 1.04088 45.6357 0.789542C45.5707 0.538207 45.4121 0.323854 45.1947 0.193516C44.977 0.0637184 44.7186 0.0286459 44.476 0.0959905C44.2334 0.163335 44.0265 0.327599 43.9006 0.552759L40.656 6.37529C39.8873 7.75468 38.1856 8.28411 36.6952 7.76221C33.86 6.76937 30.7965 6.23089 27.579 6.23089C24.3615 6.23089 21.2981 6.76936 18.4629 7.76217C16.9726 8.28408 15.2708 7.75469 14.5021 6.37531L11.2573 0.552759C11.1315 0.327599 10.9245 0.163335 10.682 0.0959905C10.4394 0.0286459 10.1809 0.0637184 9.96325 0.193516C9.74574 0.323732 9.58703 0.538087 9.52201 0.789472C9.45699 1.04086 9.49097 1.3087 9.61648 1.53415L12.7164 7.09621C13.5203 8.5387 12.9951 10.3467 11.6555 11.3124C6.03556 15.3635 2.0435 21.5446 0.657318 28.7782C0.327568 30.4989 1.72065 31.9999 3.47271 31.9999H51.685C53.4372 31.9999 54.8303 30.4988 54.5004 28.778C52.915 20.5076 47.9235 13.6127 40.9879 9.7043" fill="#ff5c00"/>
</svg>
