<svg width="35" height="132" viewBox="0 0 35 132" fill="none" xmlns="http://www.w3.org/2000/svg">
<g clip-path="url(#clip0_1_3855)">
<path d="M21.3903 108.412C23.8413 104.256 25.7352 101.084 27.5178 98.0212C28.1862 96.9274 28.7432 95.8337 29.5231 94.8493C30.5258 93.4274 31.6399 91.4586 33.7566 92.5524C35.7619 93.6461 34.8707 95.7243 34.3136 97.2556C33.868 98.8962 32.9767 100.537 32.1969 102.068C28.7432 109.178 25.1782 116.287 21.6131 123.287C20.6105 125.147 19.7192 127.115 18.3823 128.756C15.7085 132.256 13.0347 132.037 11.0294 128.209C8.3556 123.069 5.90462 117.818 3.45365 112.568C2.33957 110.381 1.2255 108.084 0.445642 105.787C1.05122e-05 104.474 0.111408 102.943 3.54372e-07 101.521C3.11942 101.084 3.78788 102.834 4.56773 104.365C6.68448 108.193 8.68983 112.131 10.8066 115.959C11.5864 117.272 12.3663 118.693 14.1488 120.006C14.3716 118.037 14.7058 116.178 14.8173 114.209C15.5971 99.4431 16.377 84.7866 17.1568 70.0207C18.2709 48.5829 19.385 27.2544 20.6105 5.81651C20.7219 4.06648 21.3903 2.31644 21.9474 0.238282C24.9554 2.20706 24.2869 4.50398 24.1755 6.36339C23.9527 16.8636 23.5071 27.4731 23.1728 37.9733C22.393 60.6143 21.6131 83.2553 20.8333 105.896C20.9447 106.443 21.0561 106.771 21.3903 108.412Z" fill="black"/>
</g>
<defs>
<clipPath id="clip0_1_3855">
<rect width="131" height="35" fill="white" transform="translate(0 131.238) rotate(-90)"/>
</clipPath>
</defs>
</svg>
