<svg width="228" height="233" viewBox="0 0 266 312" fill="none" xmlns="http://www.w3.org/2000/svg">
<g filter="url(#filter0_i_270_1309)">
<path d="M68.5 41L38 207L143 121.5L130 265.5L217.5 176L228 274" stroke="#FF5C00" stroke-width="69" stroke-linecap="square" stroke-linejoin="round"/>
</g>
<rect x="51" y="75" width="51" height="26" rx="13" fill="white"/>
<path d="M59.5 88.5C59.5 82.701 64.201 78 70 78C75.799 78 80.5 82.701 80.5 88.5C80.5 94.299 75.799 99 70 99C64.201 99 59.5 94.299 59.5 88.5Z" fill="#030303"/>
<rect y="75" width="51" height="26" rx="13" fill="white"/>
<rect x="17" y="78" width="21" height="21" rx="10.5" fill="#030303"/>
<path d="M13.5 66.9999C20.3333 59.6666 35.5 47.4999 41.5 57.4999C49 69.9999 57 49.4999 67.5 55.4999C78 61.4999 95.5 59.4999 99.5 57.4999C103.5 55.4999 109.5 61.4999 113.5 62.9999" stroke="black" stroke-width="4" stroke-linecap="square" stroke-linejoin="round"/>
<defs>
<filter id="filter0_i_270_1309" x="3.49805" y="0.833496" width="262.481" height="315.146" filterUnits="userSpaceOnUse" color-interpolation-filters="sRGB">
<feFlood flood-opacity="0" result="BackgroundImageFix"/>
<feBlend mode="normal" in="SourceGraphic" in2="BackgroundImageFix" result="shape"/>
<feColorMatrix in="SourceAlpha" type="matrix" values="0 0 0 0 0 0 0 0 0 0 0 0 0 0 0 0 0 0 127 0" result="hardAlpha"/>
<feOffset dy="4"/>
<feGaussianBlur stdDeviation="2.75"/>
<feComposite in2="hardAlpha" operator="arithmetic" k2="-1" k3="1"/>
<feColorMatrix type="matrix" values="0 0 0 0 1 0 0 0 0 1 0 0 0 0 1 0 0 0 0.7 0"/>
<feBlend mode="normal" in2="shape" result="effect1_innerShadow_270_1309"/>
</filter>
</defs>
</svg>
