<svg width="257" height="300" viewBox="0 0 257 300" fill="none" xmlns="http://www.w3.org/2000/svg">
<g filter="url(#filter0_i_347_1975)">
<path d="M215.354 163.784C214.558 171.129 208.836 176.974 201.51 177.926L65.9227 195.556C59.344 196.411 53.7827 190.719 54.7914 184.162L55.2974 180.873C55.9714 176.491 60.4263 173.771 64.6315 175.173V175.173C66.7655 175.884 69.1098 175.55 70.9606 174.272L197.043 87.1712C208.314 79.3849 223.521 88.4404 222.044 102.06L215.354 163.784Z" fill="url(#paint0_linear_347_1975)"/>
</g>
<g filter="url(#filter1_i_347_1975)">
<rect x="262.706" y="112.416" width="88.8329" height="69.5727" rx="11" transform="rotate(126.813 262.706 112.416)" fill="#6EA0FF"/>
</g>
<rect x="212.804" y="130.546" width="20.0464" height="29.0869" rx="10.0232" transform="rotate(126.813 212.804 130.546)" fill="white"/>
<rect x="198.571" y="125.293" width="13.7573" height="14.5434" rx="6.87865" transform="rotate(126.813 198.571 125.293)" fill="#030303"/>
<rect x="224.816" y="114.497" width="20.0464" height="29.0869" rx="10.0232" transform="rotate(126.813 224.816 114.497)" fill="white"/>
<rect x="211.289" y="108.3" width="13.7573" height="14.5434" rx="6.87865" transform="rotate(126.813 211.289 108.3)" fill="#030303"/>
<defs>
<filter id="filter0_i_347_1975" x="54.6726" y="84.2964" width="167.472" height="115.345" filterUnits="userSpaceOnUse" color-interpolation-filters="sRGB">
<feFlood flood-opacity="0" result="BackgroundImageFix"/>
<feBlend mode="normal" in="SourceGraphic" in2="BackgroundImageFix" result="shape"/>
<feColorMatrix in="SourceAlpha" type="matrix" values="0 0 0 0 0 0 0 0 0 0 0 0 0 0 0 0 0 0 127 0" result="hardAlpha"/>
<feOffset dy="4"/>
<feGaussianBlur stdDeviation="5.9"/>
<feComposite in2="hardAlpha" operator="arithmetic" k2="-1" k3="1"/>
<feColorMatrix type="matrix" values="0 0 0 0 1 0 0 0 0 1 0 0 0 0 1 0 0 0 0.4 0"/>
<feBlend mode="normal" in2="shape" result="effect1_innerShadow_347_1975"/>
</filter>
<filter id="filter1_i_347_1975" x="158.175" y="75.1243" width="100.134" height="108.013" filterUnits="userSpaceOnUse" color-interpolation-filters="sRGB">
<feFlood flood-opacity="0" result="BackgroundImageFix"/>
<feBlend mode="normal" in="SourceGraphic" in2="BackgroundImageFix" result="shape"/>
<feColorMatrix in="SourceAlpha" type="matrix" values="0 0 0 0 0 0 0 0 0 0 0 0 0 0 0 0 0 0 127 0" result="hardAlpha"/>
<feOffset dy="4"/>
<feGaussianBlur stdDeviation="5.9"/>
<feComposite in2="hardAlpha" operator="arithmetic" k2="-1" k3="1"/>
<feColorMatrix type="matrix" values="0 0 0 0 1 0 0 0 0 1 0 0 0 0 1 0 0 0 0.4 0"/>
<feBlend mode="normal" in2="shape" result="effect1_innerShadow_347_1975"/>
</filter>
<linearGradient id="paint0_linear_347_1975" x1="328.808" y1="60.7671" x2="87.3632" y2="173.397" gradientUnits="userSpaceOnUse">
<stop stop-color="#6EA0FF"/>
<stop offset="1" stop-color="white"/>
</linearGradient>
</defs>
</svg>
