
                  <svg
                    width="20"
                    height="15"
                    viewBox="0 0 20 21"
                    fill="none"
                    xmlns="http://www.w3.org/2000/svg"
                  >
                    <path
                      d="M5.83333 5.87728V3.37728C5.83333 3.15626 5.92113 2.9443 6.07741 2.78802C6.23369 2.63174 6.44565 2.54395 6.66667 2.54395H16.6667C16.8877 2.54395 17.0996 2.63174 17.2559 2.78802C17.4122 2.9443 17.5 3.15626 17.5 3.37728V15.0439C17.5 15.265 17.4122 15.4769 17.2559 15.6332C17.0996 15.7895 16.8877 15.8773 16.6667 15.8773H14.1667V18.3773C14.1667 18.8373 13.7917 19.2106 13.3275 19.2106H3.33917C3.22927 19.2113 3.12033 19.1902 3.0186 19.1486C2.91687 19.1071 2.82436 19.0458 2.74638 18.9684C2.6684 18.8909 2.60649 18.7988 2.56421 18.6974C2.52193 18.596 2.50011 18.4872 2.5 18.3773L2.5025 6.71061C2.5025 6.25061 2.8775 5.87728 3.34167 5.87728H5.83333ZM4.16917 7.54395L4.16667 17.5439H12.5V7.54395H4.16917ZM7.5 5.87728H14.1667V14.2106H15.8333V4.21061H7.5V5.87728Z"
                      fill="#FF5C00"
                    />
                  </svg>
