<svg width="48" height="48" viewBox="0 0 48 48" fill="none" xmlns="http://www.w3.org/2000/svg">
<g clip-path="url(#clip0_183_61326)">
<path d="M21.9404 4H17.9404C7.94043 4 3.94043 8 3.94043 18V30C3.94043 40 7.94043 44 17.9404 44H29.9404C39.9404 44 43.9404 40 43.9404 30V26" stroke="black" stroke-width="4.5" stroke-linecap="round" stroke-linejoin="round"/>
<path d="M43.7599 7.12044C41.2999 13.2604 35.1199 21.6204 29.9599 25.7604L26.7999 28.2804C26.3999 28.5804 25.9999 28.8204 25.5399 29.0004C25.5399 28.7004 25.5199 28.4004 25.4799 28.0804C25.2999 26.7404 24.6999 25.4804 23.6199 24.4204C22.5199 23.3204 21.1999 22.7004 19.8399 22.5204C19.5199 22.5004 19.1999 22.4804 18.8799 22.5004C19.0599 22.0004 19.3199 21.5404 19.6599 21.1604L22.1799 18.0004C26.3199 12.8404 34.6999 6.62044 40.8199 4.16044C41.7599 3.80044 42.6799 4.08044 43.2599 4.66044C43.8599 5.26044 44.1399 6.18044 43.7599 7.12044Z" stroke="black" stroke-width="4.5" stroke-linecap="round" stroke-linejoin="round"/>
<path d="M25.5602 28.98C25.5602 30.74 24.8802 32.42 23.6202 33.7C22.6402 34.68 21.3202 35.36 19.7402 35.56L15.8002 35.98C13.6602 36.22 11.8202 34.4 12.0602 32.22L12.4802 28.28C12.8602 24.78 15.7802 22.54 18.9002 22.48C19.2202 22.46 19.5402 22.48 19.8602 22.5C21.2202 22.68 22.5402 23.3 23.6402 24.4C24.7202 25.48 25.3202 26.72 25.5002 28.06C25.5402 28.38 25.5602 28.7 25.5602 28.98Z" stroke="black" stroke-width="4.5" stroke-linecap="round" stroke-linejoin="round"/>
<path d="M31.6396 23.9599C31.6396 19.7799 28.2596 16.3799 24.0596 16.3799" stroke="black" stroke-width="4.5" stroke-linecap="round" stroke-linejoin="round"/>
</g>
<defs>
<clipPath id="clip0_183_61326">
<rect width="48" height="48" fill="white"/>
</clipPath>
</defs>
</svg>
