<svg width="35" height="45" viewBox="0 0 35 45" fill="none" xmlns="http://www.w3.org/2000/svg">
<path d="M12.5695 34.3409L12.6193 34.7852H13.0664H15.3129H15.8129V34.2852V24.0704H19.1879V34.2852V34.7852H19.6879H21.9345H22.3816L22.4314 34.3409C22.7026 31.9217 23.9593 29.8934 26.1045 27.6057C26.1808 27.5251 26.3868 27.3138 26.6415 27.0525C26.7914 26.8988 26.9581 26.7277 27.1252 26.5558C27.5602 26.1083 28.023 25.6295 28.1336 25.4943L28.1339 25.494C29.7388 23.5298 30.7456 21.1603 31.037 18.6582C31.3285 16.1561 30.8925 13.6246 29.7799 11.3556C28.6674 9.08662 26.9241 7.17313 24.7521 5.83432C22.5802 4.49557 20.0673 3.78552 17.5029 3.78498C14.9385 3.78444 12.4253 4.49345 10.2528 5.83129C8.08023 7.16918 6.33609 9.08195 5.22261 11.3504C4.10908 13.619 3.67198 16.1504 3.96232 18.6526C4.25266 21.1548 5.25843 23.5247 6.86249 25.4895L6.86327 25.4905C6.97486 25.6265 7.43912 26.1063 7.87496 26.5543C8.01625 26.6996 8.15703 26.844 8.28743 26.9778C8.5752 27.273 8.8124 27.5163 8.89298 27.6023L8.89325 27.6026C11.0413 29.8928 12.2983 31.9214 12.5695 34.3409ZM13.1254 38.0711H12.6254V38.5711V40.7141V41.2141H13.1254H21.8754H22.3754V40.7141V38.5711V38.0711H21.8754H13.1254ZM4.22414 27.5395C2.22408 25.0913 0.971454 22.1406 0.609237 19.0273C0.247001 15.914 0.78982 12.7633 2.17583 9.93798C3.56189 7.11257 5.73525 4.72671 8.44689 3.05637C11.1586 1.38598 14.2978 0.499497 17.5027 0.5C20.7077 0.500503 23.8465 1.38797 26.5577 3.05921C29.2688 4.7304 31.4414 7.11694 32.8265 9.94279C34.2116 12.7685 34.7534 15.9194 34.3901 19.0326C34.0269 22.1459 32.7732 25.0965 30.7721 27.5441C30.4765 27.9046 30.0663 28.3187 29.5865 28.803C29.5464 28.8435 29.5057 28.8845 29.4647 28.926C28.9409 29.4552 28.3563 30.0524 27.8126 30.703C26.7354 31.9918 25.7504 33.5678 25.7504 35.3567V40.7141C25.7504 41.7148 25.3447 42.6767 24.6191 43.3875C23.8932 44.0987 22.9064 44.5 21.8754 44.5H13.1254C12.0944 44.5 11.1077 44.0987 10.3817 43.3875C9.65615 42.6767 9.25044 41.7148 9.25044 40.7141V35.3567C9.25044 33.5677 8.26483 31.9916 7.18688 30.7024C6.64278 30.0516 6.05772 29.454 5.53348 28.9243C5.49362 28.884 5.4542 28.8442 5.41523 28.8048C4.93316 28.3181 4.52099 27.902 4.22414 27.5395Z" fill="black" stroke="black"/>
</svg>
