<svg width="1706" height="502" viewBox="0 0 1706 502" fill="none" xmlns="http://www.w3.org/2000/svg">
<path d="M1272.5 501.5L1604.74 451.152C1662.39 442.416 1705 392.864 1705 334.559V334.559C1705 239.9 1599.09 183.821 1520.8 237.023L1407.78 313.822C1359.32 346.754 1293.76 312.041 1293.76 253.447V226.969C1293.76 163.29 1376 137.814 1412 190.342V190.342C1448 242.871 1530.24 217.395 1530.24 153.716V110.715C1530.24 62.2083 1486.49 25.4301 1438.71 33.7629L836.81 138.721C730.203 157.311 722.459 307.406 826.587 336.869V336.869C914.999 361.885 988.66 266.175 941.843 187.115L876.08 76.061C843.915 21.7445 781.749 -7.3089 719.448 2.85872L158.658 94.3797C94.7211 104.814 44.6383 154.998 34.3328 218.956L30.8855 240.351C17.2287 325.108 86.0912 400.481 171.734 394.516L264.194 388.075C328.533 383.594 362.771 310.035 324.774 257.921L287.825 207.244C271.672 185.091 238.314 186.059 223.473 209.111V209.111C201.584 243.112 239.493 283.868 274.987 264.495L368.646 213.375C419.869 185.417 412.516 109.676 356.871 92.0937L203.663 43.683C165.755 31.705 128.362 63.4712 134.055 102.816L138.668 134.704C143.335 166.963 183.387 179.309 205.406 155.277V155.277C224.199 134.766 215.816 101.716 189.52 92.6412L81.9611 55.5234C51.423 44.9849 17.9676 60.1094 5.70541 89.9972V89.9972C-16.7513 144.733 44.109 196.137 94.3173 164.841L237.949 75.3099C302.511 35.0668 387.67 67.1261 409.663 139.954L423.445 185.59C453.771 286.005 574.275 326.264 658.869 264.242L929.657 65.7037C977.587 30.5619 1045.83 51.2054 1066.25 107.021L1111.51 230.78C1132.69 288.682 1217.52 278.431 1224.29 217.15V217.15C1230.71 159.119 1308.95 145.451 1334.66 197.869L1346.59 222.198C1374.14 278.357 1315.65 337.88 1259.01 311.317L1222.19 294.044C1149.77 260.075 1165.82 152.723 1245.01 141.424L1452.28 111.853" stroke="#D6E4FF"/>
</svg>
