<svg width="63" height="60" viewBox="0 0 63 60" fill="none" xmlns="http://www.w3.org/2000/svg">
<path d="M57.5218 12.5707C57.5424 21.2663 55.647 29.9939 50.9197 37.5424L50.9181 37.5449C46.8988 44.1391 40.9011 49.5901 34.0089 53.7217L34.0079 53.7223C33.0001 54.3327 31.968 54.9196 30.9115 55.4962C30.8025 55.5557 30.7537 55.6861 30.7968 55.8025C30.8399 55.9189 30.9619 55.986 31.0833 55.9602C35.9213 54.9311 40.4981 52.7952 44.5008 49.9621C46.4898 48.5673 48.3813 46.8919 50.0269 45.1586L50.0278 45.1577C53.6744 41.2764 56.3862 36.6639 57.9626 31.7458L57.9636 31.7424C59.8656 25.508 60.1103 18.7312 58.0142 12.5052C57.9869 12.3966 57.8885 12.3163 57.7715 12.3164C57.6335 12.3166 57.5218 12.4285 57.5218 12.5664V12.567L57.5218 12.5707Z" fill="white" stroke="#FE813A" stroke-width="0.5" stroke-linejoin="round"/>
<path d="M31.6654 55.8348C31.6654 55.7752 31.6867 55.7175 31.7254 55.6722C43.327 42.1178 45.4164 25.0542 35.9203 9.86853L35.9194 9.86709L35.9194 9.86709C34.6555 7.81488 33.2327 5.83569 31.6295 3.9418C31.5489 3.84661 31.5508 3.70659 31.634 3.61362C31.7171 3.52066 31.856 3.50318 31.9596 3.57267C34.0889 5.00138 35.952 6.7733 37.6188 8.67999L31.6654 55.8348ZM31.6654 55.8348V55.8369C31.6654 55.9304 31.7175 56.016 31.8005 56.059M31.6654 55.8348L31.8005 56.059M31.8005 56.059C31.8836 56.1019 31.9836 56.0949 32.0599 56.0409M31.8005 56.059L32.0599 56.0409M32.0599 56.0409C47.7711 44.9091 50.1521 23.0042 37.6189 8.68007L32.0599 56.0409Z" fill="white" stroke="#FE813A" stroke-width="0.5" stroke-linejoin="round"/>
<path d="M4.94353 46.9875C4.98167 47.1045 5.09925 47.1763 5.22074 47.1568C5.34222 47.1374 5.4315 47.0324 5.43121 46.9094C5.41072 38.2107 7.24317 29.48 11.8139 21.9317L11.8139 21.9318L11.8155 21.9292C15.7009 15.3345 21.4983 9.88389 28.1595 5.7528L28.1605 5.75219C29.1346 5.1419 30.1321 4.55501 31.1533 3.97844C31.2611 3.91759 31.3081 3.78704 31.2639 3.67144C31.2197 3.55584 31.0975 3.48998 30.9766 3.51658C26.2976 4.54621 21.8719 6.6831 18.0019 9.51685C16.0786 10.912 14.2498 12.5879 12.659 14.3214L12.6581 14.3224C9.13273 18.2042 6.51166 22.8168 4.98811 27.7341L4.98809 27.7341L4.98712 27.7374C3.14729 33.9765 2.91208 40.7583 4.94353 46.9875Z" fill="white" stroke="#FE813A" stroke-width="0.5" stroke-linejoin="round"/>
<path d="M31.2737 3.80514C31.3558 3.70927 31.3535 3.56729 31.2685 3.47407C31.1834 3.38085 31.0422 3.36564 30.9393 3.43859C15.2281 14.5704 12.847 36.4753 25.3803 50.7973C27.0471 52.704 28.9102 54.476 31.0395 55.9047C31.1431 55.9742 31.2821 55.9567 31.3652 55.8638C31.4483 55.7708 31.4502 55.6308 31.3697 55.5356C29.7665 53.6417 28.3437 51.6625 27.0797 49.6103L27.0788 49.6088C17.5828 34.4232 19.6722 17.3596 31.2737 3.80514Z" fill="white" stroke="#FE813A" stroke-width="0.5" stroke-linejoin="round"/>
</svg>
