<?xml version="1.0" encoding="utf-8"?>
<!-- Generator: Adobe Illustrator 26.4.1, SVG Export Plug-In . SVG Version: 6.00 Build 0)  -->
<svg class="w-full h-full" version="1.1" id="Layer_1" xmlns="http://www.w3.org/2000/svg" xmlns:xlink="http://www.w3.org/1999/xlink" x="0px" y="0px"
	 viewBox="0 0 129 121" style="enable-background:new 0 0 129 121;" xml:space="preserve">
<style type="text/css">
	.st0{clip-path:url(#SVGID_00000166645242322964701500000010703334592432880805_);}
	.st1{fill:#FF5C00;stroke:#FF5C00;stroke-width:0.5;stroke-linejoin:round;}
</style>
<g>
	<defs>
		<rect id="SVGID_1_" y="0" width="129" height="121"/>
	</defs>
	<clipPath id="SVGID_00000144303464795821139730000015942947892083555503_">
		<use xlink:href="#SVGID_1_"  style="overflow:visible;"/>
	</clipPath>
	<g style="clip-path:url(#SVGID_00000144303464795821139730000015942947892083555503_);">
		<path class="st1" d="M124.5,21.4c0,19.9-4.3,39.8-15.2,57.1l0,0c-9.2,15.1-23,27.5-38.9,37l0,0c-2.3,1.4-4.7,2.7-7.1,4
			c-0.1,0.1-0.2,0.2-0.1,0.3c0,0.1,0.2,0.2,0.3,0.2c11-2.3,21.5-7.2,30.6-13.6c4.5-3.2,8.9-7,12.6-10.9l0,0
			c8.3-8.8,14.5-19.3,18.1-30.4l0,0c4.3-14.2,4.9-29.5,0.1-43.7c0-0.1-0.1-0.2-0.2-0.2C124.6,21.1,124.5,21.2,124.5,21.4L124.5,21.4
			L124.5,21.4z"/>
		<path class="st1" d="M63.7,0.8c10.4,17.9,17.1,38,16.9,58.8l0,0c0,18.1-5.1,36-13.5,52.2l0,0c-1.2,2.4-2.5,4.7-3.9,7.1
			c-0.1,0.1,0,0.2,0.1,0.3c0.1,0.1,0.2,0.1,0.3,0c8.1-7.5,14.4-16.9,18.8-27.2c2.2-5.1,3.8-10.6,5-16l0,0c2.4-12,2.2-24.4-0.6-36.3
			l0,0C83,25,75.5,10.9,64.1,0.5c-0.1-0.1-0.2-0.1-0.3-0.1C63.7,0.5,63.6,0.7,63.7,0.8L63.7,0.8L63.7,0.8z"/>
		<path class="st1" d="M3.9,99.7c0,0.1,0.2,0.2,0.3,0.2c0.1,0,0.2-0.1,0.2-0.2c0-19.9,4.2-39.8,14.7-57.1l0,0
			C28,27.5,41.4,15,56.7,5.6l0,0c2.2-1.4,4.5-2.7,6.9-4.1c0.1-0.1,0.2-0.2,0.1-0.3c0-0.1-0.2-0.2-0.3-0.2
			C52.7,3.4,42.6,8.2,33.7,14.7c-4.4,3.2-8.6,7-12.2,10.9l0,0C13.5,34.4,7.5,44.9,4,56l0,0C-0.2,70.2-0.7,85.6,3.9,99.7z"/>
		<path class="st1" d="M63.7,1.2c0.1-0.1,0.1-0.2,0-0.3c-0.1-0.1-0.2-0.1-0.3,0c-35.9,25.3-41.3,75-12.7,107.5
			c3.8,4.3,8.1,8.3,12.9,11.6c0.1,0.1,0.2,0.1,0.3,0c0.1-0.1,0.1-0.2,0-0.3c-3.7-4.3-7-8.9-9.9-13.5l0,0
			C32.2,71.2,37.1,32.2,63.7,1.2z"/>
	</g>
</g>
</svg>
