<svg width="14" height="14" viewBox="0 0 14 14" fill="none" xmlns="http://www.w3.org/2000/svg">
<path d="M9.44352 1.16699H4.55518C2.43185 1.16699 1.16602 2.43283 1.16602 4.55616V9.43866C1.16602 11.5678 2.43185 12.8337 4.55518 12.8337H9.43768C11.561 12.8337 12.8268 11.5678 12.8268 9.44449V4.55616C12.8327 2.43283 11.5668 1.16699 9.44352 1.16699ZM4.08268 7.76449C3.66268 7.76449 3.31852 7.42033 3.31852 7.00033C3.31852 6.58033 3.66268 6.23616 4.08268 6.23616C4.50268 6.23616 4.84685 6.58033 4.84685 7.00033C4.84685 7.42033 4.50268 7.76449 4.08268 7.76449ZM6.99935 7.76449C6.57935 7.76449 6.23518 7.42033 6.23518 7.00033C6.23518 6.58033 6.57935 6.23616 6.99935 6.23616C7.41935 6.23616 7.76352 6.58033 7.76352 7.00033C7.76352 7.42033 7.41935 7.76449 6.99935 7.76449ZM9.91602 7.76449C9.49602 7.76449 9.15185 7.42033 9.15185 7.00033C9.15185 6.58033 9.49602 6.23616 9.91602 6.23616C10.336 6.23616 10.6802 6.58033 10.6802 7.00033C10.6802 7.42033 10.336 7.76449 9.91602 7.76449Z" fill="#292D32"/>
</svg>
