<svg width="44" height="42" viewBox="0 0 44 42" fill="none" xmlns="http://www.w3.org/2000/svg">
<path d="M11 17.8947C9.96389 17.8947 8.93769 17.6897 7.97992 17.2911C7.02214 16.8925 6.15125 16.3079 5.41723 15.5704C4.68319 14.8328 4.10041 13.9567 3.70264 12.9918C3.30486 12.0269 3.1 10.9924 3.1 9.94737C3.1 8.90238 3.30486 7.86785 3.70264 6.90293C4.10041 5.93802 4.68319 5.0619 5.41723 4.32435C6.15125 3.58682 7.02214 3.00229 7.97992 2.60366C8.93769 2.20504 9.96389 2 11 2C13.0921 2 15.1005 2.83498 16.5828 4.32435C18.0654 5.81405 18.9 7.83652 18.9 9.94737C18.9 12.0582 18.0654 14.0807 16.5828 15.5704C15.1005 17.0598 13.0921 17.8947 11 17.8947ZM34.1 26.7368C32.2996 26.7368 30.571 26.0183 29.295 24.7362C28.0187 23.4538 27.3 21.7125 27.3 19.8947C27.3 18.077 28.0187 16.3357 29.295 15.0533C30.571 13.7712 32.2996 13.0526 34.1 13.0526C35.9004 13.0526 37.629 13.7712 38.905 15.0533C40.1813 16.3357 40.9 18.077 40.9 19.8947C40.9 21.7124 40.1813 23.4538 38.905 24.7362C37.629 26.0183 35.9004 26.7368 34.1 26.7368ZM34.1 32.9474C36.1921 32.9474 38.2005 33.7823 39.6828 35.2717C40.9543 36.5494 41.7493 38.2189 41.9498 40H26.2502C26.4507 38.2189 27.2457 36.5494 28.5172 35.2717C29.9995 33.7823 32.0079 32.9474 34.1 32.9474ZM11 24.1053C12.1806 24.1053 13.3498 24.3389 14.441 24.7931C15.5323 25.2472 16.5244 25.9132 17.3606 26.7533C18.1968 27.5935 18.8606 28.5915 19.3136 29.6905C19.7667 30.7895 20 31.9678 20 33.1579V40H2V33.1579C2 30.7539 2.95052 28.4503 4.63941 26.7533C6.32798 25.0567 8.61614 24.1053 11 24.1053Z" fill="black" stroke="black" stroke-width="4"/>
</svg>
