<svg width="62" height="24" viewBox="0 0 62 24" fill="none" xmlns="http://www.w3.org/2000/svg">
<g clip-path="url(#clip0_183_61254)">
<path d="M45.6299 19.421L47.421 14.9255H52.5925L50.1382 8.10595L53.2077 0.401367L61.9995 23.5707H55.5159L54.0135 19.421H45.6299Z" fill="#ff5c00"/>
<path d="M40.0987 23.5708L49.5105 0.401367L43.2708 0.401398L36.8326 15.374L32.2544 0.401429H27.4582L22.5425 15.374L19.0757 8.55129L15.9385 18.1447L19.1237 23.5708H25.2644L29.7065 10.1436L33.9419 23.5708H40.0987Z" fill="#ff5c00"/>
<path d="M5.92291 15.6171H9.76624C10.9305 15.6171 11.9671 15.4881 12.8763 15.2302L13.8702 12.1908L16.6481 3.69631C16.4365 3.36332 16.1948 3.04848 15.9232 2.75182C14.4969 1.18483 12.4101 0.401367 9.66279 0.401367H0V23.5707H5.92291V15.6171ZM11.0101 5.73171C11.5673 6.28824 11.8458 7.03298 11.8458 7.96598C11.8458 8.90615 11.6008 9.6518 11.1109 10.2029C10.5738 10.8153 9.58478 11.1215 8.14398 11.1215H5.92291V4.89688H8.16031C9.50312 4.89688 10.4531 5.17516 11.0101 5.73171Z" fill="#ff5c00"/>
</g>
<defs>
<clipPath id="clip0_183_61254">
<rect width="62" height="24" fill="white"/>
</clipPath>
</defs>
</svg>
