<svg width="44" height="50" viewBox="0 0 44 50" fill="none" xmlns="http://www.w3.org/2000/svg">
<path d="M23.5 5.12162C22.1193 5.12162 21 6.24091 21 7.62162V31.7297C21 32.5582 20.3284 33.2297 19.5 33.2297H17.875C17.0466 33.2297 16.375 32.5582 16.375 31.7297V24.4865C16.375 23.0884 15.2447 22.0454 13.9738 21.8172C11.8289 21.432 9.83557 20.4009 8.27349 18.8398C6.25751 16.825 5.125 14.0924 5.125 11.2432C5.125 8.39405 6.25751 5.6615 8.27349 3.64673C10.2895 1.63195 13.0238 0.5 15.875 0.5H36.375C37.2034 0.5 37.875 1.17157 37.875 2V3.62162C37.875 4.45005 37.2034 5.12162 36.375 5.12162H34.75C33.3693 5.12162 32.25 6.24091 32.25 7.62162V31.7297C32.25 32.5582 31.5784 33.2297 30.75 33.2297H29.125C28.2966 33.2297 27.625 32.5582 27.625 31.7297V7.62162C27.625 6.24091 26.5057 5.12162 25.125 5.12162H23.5ZM16.375 7.62162C16.375 6.93495 16.0895 6.28847 15.6175 5.86641C15.1346 5.43449 14.4529 5.24095 13.7428 5.50451C12.9248 5.80813 12.1731 6.28589 11.5441 6.9145C10.3954 8.0625 9.75 9.61959 9.75 11.2432C9.75 12.8669 10.3954 14.424 11.5441 15.572C12.1731 16.2006 12.9248 16.6784 13.7428 16.982C14.4529 17.2455 15.1346 17.052 15.6175 16.6201C16.0895 16.198 16.375 15.5515 16.375 14.8649V7.62162ZM9.75 37.3513C9.75 38.7321 10.8693 39.8514 12.25 39.8514H42C42.8284 39.8514 43.5 40.5229 43.5 41.3514V42.973C43.5 43.8014 42.8284 44.473 42 44.473H12.25C10.8693 44.473 9.75 45.5923 9.75 46.973V47.5942C9.75 48.8827 8.23255 49.5716 7.26258 48.7234L1.0508 43.2913C0.367358 42.6937 0.367358 41.6307 1.0508 41.033L7.26258 35.601C8.23255 34.7527 9.75 35.4416 9.75 36.7301V37.3513Z" fill="black" stroke="black"/>
</svg>
