<svg width="22" height="21" viewBox="0 0 22 21" fill="none" xmlns="http://www.w3.org/2000/svg">
<path d="M3.51567 2.1773C4.59786 1.19951 5.86895 0.458202 7.24899 0C7.64359 0.498635 8.14454 0.901143 8.71461 1.1776C9.28468 1.45406 9.90919 1.59735 10.5417 1.59683C11.1743 1.59735 11.7988 1.45406 12.3688 1.1776C12.9389 0.901143 13.4399 0.498635 13.8345 0C15.2145 0.458202 16.4856 1.19951 17.5678 2.1773C17.3375 2.771 17.2427 3.4094 17.2905 4.04511C17.3383 4.68081 17.5275 5.29749 17.8439 5.84936C18.1597 6.40229 18.595 6.8763 19.1174 7.23614C19.6399 7.59598 20.236 7.83239 20.8616 7.92779C21.1573 9.36185 21.1573 10.8419 20.8616 12.276C19.6389 12.4652 18.5111 13.1903 17.8439 14.3544C17.5273 14.9064 17.3381 15.5233 17.2903 16.1592C17.2425 16.7951 17.3373 17.4337 17.5678 18.0276C16.4855 19.005 15.2144 19.7459 13.8345 20.2038C13.4398 19.7054 12.9388 19.3031 12.3687 19.0268C11.7986 18.7505 11.1742 18.6074 10.5417 18.608C9.90919 18.6075 9.28468 18.7508 8.71461 19.0273C8.14454 19.3037 7.64359 19.7062 7.24899 20.2049C5.86904 19.747 4.59796 19.006 3.51567 18.0286C3.74613 17.4348 3.84098 16.7962 3.79318 16.1603C3.74537 15.5244 3.55613 14.9075 3.23952 14.3555C2.92362 13.8028 2.48827 13.329 1.96584 12.9693C1.4434 12.6097 0.847309 12.3734 0.221885 12.2781C-0.0739615 10.8437 -0.0739615 9.36326 0.221885 7.92885C0.847404 7.83345 1.44355 7.59704 1.966 7.2372C2.48844 6.87736 2.92374 6.40335 3.23952 5.85043C3.55597 5.29855 3.74512 4.68187 3.79292 4.04617C3.84073 3.41047 3.74597 2.77207 3.51567 2.17836V2.1773ZM12.1227 12.8639C12.4853 12.656 12.8034 12.3779 13.0589 12.0454C13.3144 11.713 13.5022 11.3329 13.6115 10.927C13.7207 10.521 13.7493 10.0973 13.6955 9.68022C13.6418 9.26311 13.5068 8.86085 13.2983 8.49658C13.0898 8.13232 12.8119 7.81326 12.4806 7.55776C12.1494 7.30226 11.7713 7.11537 11.3681 7.00786C10.965 6.90035 10.5447 6.87434 10.1315 6.93132C9.71836 6.9883 9.32045 7.12715 8.9607 7.33988C8.24037 7.76582 7.71631 8.46186 7.50288 9.2761C7.28946 10.0903 7.404 10.9567 7.8215 11.6861C8.23901 12.4154 8.92558 12.9486 9.73141 13.1693C10.5372 13.39 11.3969 13.2802 12.1227 12.8639Z" fill="white"/>
</svg>
