<svg viewBox="0 0 1779 486" fill="none" xmlns="http://www.w3.org/2000/svg" class="">
<path d="M1349.11 485L1672.86 448.737C1732.73 442.03 1778 391.404 1778 331.157V331.157C1778 237.222 1673.8 180.748 1595.1 232.027L1465.43 316.516C1415.38 349.126 1349.11 313.212 1349.11 253.476V230.879C1349.11 164.74 1433.97 137.534 1472.43 191.342V191.342C1510.88 245.151 1595.74 217.945 1595.74 151.806V113.583C1595.74 63.977 1551.18 26.2517 1502.26 34.4325L876.767 139.017C768.172 157.174 760.563 310.378 866.824 339.207V339.207C956.604 363.565 1029.85 265.443 980.969 186.294L911.844 74.3669C879.152 21.4307 817.907 -6.74357 756.437 2.87551L160.65 96.1072C96.7431 106.108 46.4059 155.881 35.6863 219.672L32.8028 236.831C18.1938 323.766 88.5781 401.55 176.537 395.676L274.822 389.111C341.206 384.678 376.007 308.189 335.736 255.229L298.776 206.624C282.231 184.866 249.193 185.838 233.956 208.532V208.532C210.914 242.851 248.906 285.233 285.53 266.065L380.949 216.128C434.259 188.228 426.858 109.709 369.273 92.2622L210.416 44.132C171.608 32.3738 133.795 65.0844 139.846 105.181L144.596 136.661C149.5 169.166 189.609 181.858 212.32 158.09V158.09C232.394 137.083 223.73 102.326 196.145 93.1976L82.6554 55.6447C52.0699 45.5242 18.8285 60.5074 6.15518 90.1263V90.1263C-17.4853 145.377 43.4061 198.588 94.9901 167.757L250.345 74.9041C317.301 34.8859 404.063 67.8889 427.496 142.289L441.511 186.786C473.551 288.513 595.258 329.72 682.507 268.382L971.177 65.4429C1020.94 30.4559 1090.34 51.6813 1112.03 108.521L1159.51 232.993C1182.18 292.424 1269.36 281.486 1276.65 218.296V218.296C1283.53 158.56 1363.72 144.049 1391.11 197.583L1402.27 219.409C1431.62 276.772 1372.37 339.074 1313.61 312.645L1279 297.082C1204.32 263.495 1220.26 153.097 1301.39 141.998L1514.43 112.853" stroke="#D6E4FF"/>
</svg>
