<svg width="140" height="128" viewBox="0 0 140 128" fill="none" xmlns="http://www.w3.org/2000/svg">
<path d="M74.0418 38.2169C74.8152 38.9903 75.5334 39.888 76.1963 40.91C76.873 41.9458 77.46 43.099 77.9571 44.3696L71.328 47.9742C70.9966 47.1179 70.527 46.234 69.9193 45.3225C69.3255 44.4248 68.6626 43.61 67.9306 42.878C66.3838 41.3312 64.6575 40.5578 62.7516 40.5578C60.8733 40.5578 59.1056 41.3588 57.4483 42.9609C57.0478 43.7205 56.9442 44.556 57.1375 45.4675C57.3447 46.3652 57.7452 47.2767 58.3391 48.202C58.9467 49.1135 59.6649 49.9836 60.4935 50.8123C61.3636 51.6823 62.3027 52.4557 63.3109 53.1324C64.3191 53.8092 65.2789 54.2994 66.1904 54.6033L62.4408 60.7559C59.6097 59.6373 57.2342 58.1181 55.3145 56.1984C53.8368 54.7207 52.7319 53.022 52 51.1023C51.2818 49.1964 51.0194 47.1939 51.2128 45.0946C50.1493 46.7381 49.0928 48.2642 48.0432 49.6729C47.0074 51.0954 45.9302 52.4626 44.8115 53.7746C43.7205 55.0867 42.5397 56.4056 41.2691 57.7314C40.0261 59.0572 38.6658 60.459 37.188 61.9368L31.6776 56.4263C35.3236 52.7803 38.5346 49.2378 41.3105 45.799C44.1003 42.3463 46.6069 38.7762 48.8304 35.0888C51.0678 31.4152 53.1463 27.417 55.0659 23.0942L62.2958 26.7195C61.6882 27.9901 61.1012 29.24 60.535 30.4691C59.9687 31.6983 59.4508 32.8929 58.9813 34.053C58.5117 35.2131 58.1043 36.3525 57.759 37.4711C60.6316 35.4272 63.4974 34.4811 66.3562 34.633C69.2426 34.785 71.8045 35.9796 74.0418 38.2169Z" fill="#85AFFF"/>
<path d="M129.451 49.6465C130.545 49.6465 131.687 49.7734 132.879 50.0273C134.09 50.2812 135.32 50.6816 136.57 51.2285L134.431 58.4648C133.592 58.0938 132.635 57.8008 131.56 57.5859C130.506 57.3711 129.461 57.2637 128.426 57.2637C126.238 57.2637 124.47 57.9375 123.123 59.2852C121.795 60.6133 121.111 62.4297 121.072 64.7344C121.326 65.5547 121.844 66.2188 122.625 66.7266C123.406 67.2148 124.334 67.5762 125.408 67.8105C126.482 68.0254 127.605 68.1328 128.777 68.1328C130.008 68.1328 131.219 68.0156 132.41 67.7812C133.601 67.5469 134.627 67.2148 135.486 66.7852L137.185 73.7871C134.392 74.998 131.638 75.6035 128.924 75.6035C126.834 75.6035 124.851 75.1836 122.976 74.3438C121.121 73.5039 119.519 72.2734 118.172 70.6523C118.582 72.5664 118.914 74.3926 119.168 76.1309C119.441 77.8691 119.646 79.5977 119.783 81.3164C119.939 83.0156 120.037 84.7832 120.076 86.6191C120.135 88.4355 120.164 90.3887 120.164 92.4785H112.371C112.371 87.3223 112.136 82.5469 111.668 78.1523C111.199 73.7383 110.447 69.4414 109.412 65.2617C108.396 61.082 107.039 56.7852 105.34 52.3711L113.015 49.8223C113.484 51.1504 113.953 52.4492 114.422 53.7188C114.89 54.9883 115.369 56.1992 115.857 57.3516C116.345 58.5039 116.863 59.5977 117.41 60.6328C117.996 57.1562 119.353 54.4609 121.482 52.5469C123.631 50.6133 126.287 49.6465 129.451 49.6465Z" fill="#85AFFF"/>
<circle cx="85.748" cy="68.5005" r="16" stroke="#CDDEFF" stroke-width="8"/>
</svg>
