<svg width="51" height="135" viewBox="0 0 51 135" fill="none" xmlns="http://www.w3.org/2000/svg">
<path d="M22.1599 125.299C24.2091 121.502 25.672 118.417 27.3357 115.464C28.3474 113.76 29.4923 111.854 32.677 113.501C30.0991 119.844 28.1493 126.198 24.6212 131.97C23.1702 134.426 21.4468 134.674 18.771 133.48C17.781 133.056 16.9242 132.43 16.1211 131.898C11.7437 128.823 7.36622 125.749 3.02851 122.527C1.56936 121.502 0.096268 120.236 1.3346 118.276C2.43975 116.518 4.32425 116.55 6.01 117.32C7.89654 118.222 9.55647 119.38 11.3098 120.484C12.5145 121.283 13.7729 122.174 15.4308 122.462C15.1087 121.901 14.7867 121.34 14.4646 120.779C10.8682 114.515 11.0747 111.408 15.4716 105.633C19.0693 101.066 23.2973 97.3803 28.6107 94.935C29.8789 94.3273 31.1471 93.7195 32.3219 93.1657C37.3809 90.4939 37.9353 87.5596 33.8898 83.5466C31.8402 81.4933 29.2837 79.8571 27.0075 78.0592C19.992 72.7732 18.9779 67.7568 23.5575 60.1334C26.9922 54.4158 31.4448 49.6044 37.0225 45.8861C38.7439 44.7678 40.5588 43.5955 42.0257 42.2506C44.4528 39.9779 44.395 38.144 41.6378 36.3748C38.7732 34.4186 35.6024 33.0126 32.4715 31.4592C30.3305 30.3301 28.0165 29.5498 25.9153 28.2732C21.6591 25.6266 19.0707 21.7682 19.6866 16.5576C20.1854 12.6596 21.018 8.69325 22.0515 4.85996C22.7272 2.35358 24.393 0.271531 28.0944 0.00181762C27.83 1.27479 27.5518 2.30682 27.3272 3.43236C26.4011 7.45264 25.475 11.4729 24.8431 15.5723C24.251 19.5243 26.2887 22.2068 29.7138 23.8394C32.7375 25.2058 35.8406 26.2774 38.7708 27.6978C41.4067 29.0391 44.1362 30.3264 46.3189 32.1783C51.1795 36.0943 51.3667 41.837 46.7392 46.127C44.6322 48.0904 42.1236 49.7877 39.6547 51.3376C34.7707 54.5308 31.0119 58.8172 28.11 63.7293C25.7407 67.8359 26.186 69.695 29.828 72.5717C32.8139 74.9558 36.0264 77.0846 38.5989 79.8319C40.3403 81.5652 41.5491 84.1039 42.2231 86.5779C43.4359 90.8571 41.7604 94.4387 37.9836 96.7437C35.9282 97.9304 33.7257 99.0775 31.4556 99.8902C26.2614 101.893 22.4748 105.698 19.1434 109.862C17.5711 111.89 17.0146 113.954 18.4639 116.478C19.9132 119.003 20.7483 121.757 22.1599 125.299Z" fill="black"/>
</svg>
