<svg width="24" height="24" viewBox="0 0 24 24" fill="none" xmlns="http://www.w3.org/2000/svg">
<path d="M15.707 9.70703L13.414 12L15.707 14.293C16.098 14.684 16.098 15.316 15.707 15.707C15.512 15.902 15.256 16 15 16C14.744 16 14.488 15.902 14.293 15.707L12 13.4139L9.70697 15.707C9.51197 15.902 9.256 16 9 16C8.744 16 8.48803 15.902 8.29303 15.707C7.90203 15.316 7.90203 14.684 8.29303 14.293L10.586 12L8.29303 9.70703C7.90203 9.31603 7.90203 8.68397 8.29303 8.29297C8.68403 7.90197 9.31597 7.90197 9.70697 8.29297L12 10.5861L14.293 8.29297C14.684 7.90197 15.316 7.90197 15.707 8.29297C16.098 8.68397 16.098 9.31603 15.707 9.70703ZM22 9V15C22 18.859 18.86 22 15 22H9C5.14 22 2 18.859 2 15V9C2 5.141 5.14 2 9 2H15C18.86 2 22 5.141 22 9ZM20 9C20 6.243 17.757 4 15 4H9C6.243 4 4 6.243 4 9V15C4 17.757 6.243 20 9 20H15C17.757 20 20 17.757 20 15V9Z" fill="#fff"/>
</svg>
