<svg width="44" height="44" viewBox="0 0 44 44" fill="none" xmlns="http://www.w3.org/2000/svg">
<path d="M19.833 0.44162V6.98495C12.4837 8.04012 6.83301 14.3625 6.83301 22C6.83301 30.3763 13.6233 37.1666 21.9997 37.1666C25.4057 37.1666 28.5517 36.0443 31.0823 34.1463L35.7125 38.7765C31.9772 41.8315 27.1997 43.6666 21.9997 43.6666C10.0332 43.6666 0.333008 33.9665 0.333008 22C0.333008 10.7658 8.88484 1.52712 19.833 0.44162ZM43.558 24.1666C43.1247 28.5238 41.4043 32.5018 38.7762 35.7106L34.146 31.0826C35.6345 29.098 36.6442 26.7363 37.0125 24.1666H43.5602H43.558ZM24.1707 0.44162C34.406 1.45779 42.544 9.59795 43.5623 19.8333H37.0147C36.0657 13.1925 30.8115 7.93829 24.1707 6.98712V0.439453V0.44162Z" fill="black"/>
</svg>
