<svg width="418" height="221" viewBox="0 0 418 221" fill="none" xmlns="http://www.w3.org/2000/svg">
<path d="M390.127 196.41C388.476 194.802 388.218 193.037 389.355 191.117C393.722 184.371 396.091 176.849 396.464 168.551C396.571 166.206 396.961 160.625 397.636 151.806C397.652 151.565 397.636 151.339 397.588 151.144C397.539 150.95 397.46 150.79 397.356 150.678L395.506 148.745C397.228 130.541 398.945 112.332 400.658 94.1187C402.123 78.5866 403.108 62.9944 400.592 47.4862C400.072 44.2574 397.876 42.925 394.827 41.8207C378.823 36.0351 363.339 33.2144 344.833 30.9818C317.317 27.6529 289.695 25.4323 261.967 24.32C261.621 24.304 261.204 24.2 260.715 24.0079C259.952 23.7119 258.811 23.4477 257.294 23.2157C255.297 22.2154 255.146 20.2429 256.841 17.2981C257.933 15.4016 259.575 14.0492 261.767 13.241C264.554 12.2247 267.958 11.8326 271.979 12.0647C292.252 13.249 312.476 14.9295 332.651 17.1061C358.307 19.8668 385.001 24.6561 406.024 35.9512C419.817 43.3571 417.78 58.4692 417.287 72.9091C416.524 95.3471 415.729 117.785 414.904 140.223C414.265 157.604 412.907 171.684 409.791 187.264C407.954 196.398 399.127 198.439 390.127 196.41Z" fill="black"/>
<path d="M259.657 21C261.249 21.2322 279.599 18.7073 278.5 24.5C279.012 24.6922 280.137 24.484 280.5 24.5C309.576 25.6129 318.058 28.3203 346.911 31.6511C366.316 33.885 382.553 36.7073 399.334 42.4962C402.531 43.6011 404.835 44.9343 405.379 48.165C408.018 63.6821 406.985 79.2832 405.449 94.8243C403.653 113.048 401.852 131.267 400.046 149.482C398.566 163.622 396.416 177.754 393.596 191.878C392.405 193.8 392.675 195.565 394.406 197.175C354.212 200.213 313.669 202.459 274.592 194.808C274.592 194.808 250.712 191.878 266.257 168.602C264.833 121.491 251.634 67.6233 259.657 21ZM273.545 62.1928C274.346 62.8574 275.309 63.2377 276.435 63.3338C276.52 63.3405 276.606 63.3191 276.686 63.271C276.766 63.2228 276.839 63.149 276.901 63.0541C276.963 62.9592 277.011 62.8453 277.044 62.7198C277.077 62.5943 277.093 62.4598 277.091 62.3249C276.84 44.622 302.626 40.0101 317.69 46.5076C330.66 52.1163 327.951 65.1353 317.76 71.2004C316.392 72.0171 313.292 73.134 314.674 75.0196C315.819 76.5649 317.332 76.9132 319.212 76.0645C330.827 70.8401 338.799 56.0916 327.616 46.9159C314.786 36.371 293.412 36.3471 279.953 46.2074C274.62 50.1146 272.289 54.9427 272.959 60.6916C272.998 61.0353 273.071 61.3488 273.172 61.6087C273.274 61.8686 273.401 62.0683 273.545 62.1928ZM339.176 55.8755C340.079 57.1486 341.605 56.9004 343.755 55.1309C350.415 49.6302 361.835 53.1132 369.695 56.0557C378.141 59.2263 380.082 62.385 383 70.5038C383.069 70.6974 383.203 70.865 383.374 70.9722C383.545 71.0794 383.741 71.1181 383.921 71.0803C385.476 70.752 386.774 70.0755 387.816 69.0506C387.946 68.9156 388.037 68.7348 388.08 68.5222C388.124 68.3097 388.12 68.0713 388.068 67.8256C384.871 53.5816 365.269 47.0721 350.526 46.6637C346.199 46.5436 335.798 51.1555 339.176 55.8755ZM308.257 63.5763C308.943 62.8674 309.448 62.0396 309.741 61.1401C310.034 60.2406 310.11 59.2872 309.965 58.334C309.82 57.3809 309.456 56.4468 308.895 55.5851C308.334 54.7234 307.587 53.951 306.695 53.3119C304.894 52.0213 302.617 51.3523 300.363 51.452C298.109 51.5516 296.064 52.4119 294.678 53.8435C293.991 54.5524 293.487 55.3801 293.194 56.2796C292.901 57.1791 292.825 58.1326 292.97 59.0858C293.115 60.0389 293.478 60.973 294.039 61.8347C294.6 62.6963 295.348 63.4688 296.239 64.1078C298.04 65.3984 300.318 66.0675 302.572 65.9678C304.825 65.8681 306.87 65.0079 308.257 63.5763ZM367.238 67.4172C367.238 65.4455 366.327 63.5546 364.707 62.1604C363.086 60.7662 360.888 59.9829 358.596 59.9829C356.304 59.9829 354.106 60.7662 352.485 62.1604C350.865 63.5546 349.954 65.4455 349.954 67.4172C349.954 69.3889 350.865 71.2798 352.485 72.674C354.106 74.0682 356.304 74.8515 358.596 74.8515C360.888 74.8515 363.086 74.0682 364.707 72.674C366.327 71.2798 367.238 69.3889 367.238 67.4172ZM289.963 145.051C293.603 154.475 300.276 160.876 309.984 164.255C324.419 169.275 348.502 166.573 358.065 154.539C359.126 153.205 358.736 151.668 359.28 150.467C367.336 132.692 359.978 111.434 336.091 107.483C326.974 105.97 312.078 104.42 304.427 109.585C291.881 118.064 286.883 129.461 289.433 143.778C289.098 144.45 289.275 144.874 289.963 145.051Z" fill="#FD5333"/>
<path d="M395.505 148.745L397.355 150.678C397.46 150.79 397.539 150.949 397.587 151.144C397.635 151.339 397.652 151.565 397.635 151.806C396.96 160.625 396.57 166.206 396.463 168.551C396.091 176.849 393.721 184.371 389.354 191.117C392.043 177.001 394.093 162.877 395.505 148.745Z" fill="#22171C"/>
<path d="M274.87 61.5058C274.733 61.3814 274.611 61.1818 274.514 60.9221C274.418 60.6623 274.348 60.349 274.311 60.0054C273.672 54.2599 275.895 49.4346 280.981 45.5296C293.816 35.6749 314.199 35.6989 326.435 46.2377C337.099 55.4082 329.497 70.1482 318.42 75.3696C316.627 76.2178 315.185 75.8697 314.093 74.3253C312.775 72.4408 315.73 71.3245 317.035 70.5083C326.754 64.4466 329.337 51.4351 316.969 45.8296C302.603 39.3359 278.012 43.9451 278.252 61.6379C278.253 61.7727 278.238 61.9071 278.207 62.0325C278.176 62.158 278.129 62.2718 278.07 62.3666C278.011 62.4614 277.941 62.5353 277.865 62.5834C277.788 62.6315 277.707 62.6529 277.626 62.6462C276.552 62.5501 275.633 62.17 274.87 61.5058Z" fill="black"/>
<path d="M337.459 55.1923C334.237 50.475 344.156 45.8658 348.283 45.9858C362.343 46.394 381.036 52.8997 384.084 67.1355C384.134 67.3811 384.138 67.6194 384.096 67.8318C384.055 68.0442 383.969 68.225 383.845 68.3599C382.851 69.3841 381.613 70.0603 380.13 70.3883C379.958 70.4261 379.772 70.3875 379.608 70.2804C379.445 70.1732 379.317 70.0057 379.252 69.8122C376.469 61.698 374.618 58.5412 366.563 55.3724C359.068 52.4316 348.177 48.9506 341.826 54.4481C339.776 56.2166 338.32 56.4646 337.459 55.1923Z" fill="black"/>
<path d="M307.974 62.8885C306.651 64.3193 304.701 65.179 302.552 65.2787C300.403 65.3783 298.231 64.7096 296.513 63.4197C295.663 62.781 294.95 62.009 294.415 61.1479C293.88 60.2867 293.533 59.3531 293.395 58.4005C293.257 57.4479 293.329 56.4949 293.609 55.596C293.888 54.697 294.369 53.8697 295.024 53.1613C296.346 51.7305 298.296 50.8707 300.446 50.7711C302.595 50.6715 304.767 51.3401 306.484 52.63C307.335 53.2687 308.048 54.0407 308.583 54.9019C309.118 55.7631 309.464 56.6966 309.603 57.6492C309.741 58.6018 309.668 59.5547 309.389 60.4537C309.109 61.3526 308.628 62.18 307.974 62.8885Z" fill="black"/>
<path d="M364.22 66.7273C364.22 68.6978 363.352 70.5877 361.806 71.9811C360.261 73.3745 358.164 74.1573 355.979 74.1573C353.793 74.1573 351.697 73.3745 350.151 71.9811C348.606 70.5877 347.737 68.6978 347.737 66.7273C347.737 64.7567 348.606 62.8669 350.151 61.4735C351.697 60.0801 353.793 59.2973 355.979 59.2973C358.164 59.2973 360.261 60.0801 361.806 61.4735C363.352 62.8669 364.22 64.7567 364.22 66.7273Z" fill="black"/>
<path d="M290.528 144.316C289.871 144.14 289.702 143.716 290.022 143.044C287.59 128.736 292.356 117.345 304.321 108.871C311.617 103.709 325.823 105.258 334.517 106.77C357.297 110.719 364.314 131.965 356.631 149.73C356.112 150.93 356.485 152.466 355.473 153.799C346.353 165.826 323.387 168.527 309.62 163.509C300.362 160.132 293.998 153.735 290.528 144.316ZM314.923 148.897C316.516 149.142 318.151 149.077 319.736 148.705C321.32 148.333 322.824 147.661 324.159 146.728C325.495 145.795 326.637 144.62 327.521 143.268C328.404 141.916 329.012 140.415 329.308 138.851C329.908 135.691 329.205 132.464 327.354 129.879C325.504 127.294 322.657 125.563 319.441 125.068C317.849 124.822 316.214 124.888 314.629 125.26C313.044 125.632 311.541 126.303 310.205 127.236C308.869 128.169 307.727 129.345 306.844 130.696C305.96 132.048 305.353 133.549 305.056 135.113C304.457 138.273 305.16 141.501 307.01 144.086C308.861 146.67 311.707 148.401 314.923 148.897Z" fill="#FEF9EF"/>
<path d="M314.922 148.896C311.706 148.401 308.86 146.67 307.01 144.085C305.159 141.5 304.456 138.273 305.055 135.113C305.352 133.549 305.959 132.048 306.843 130.696C307.726 129.344 308.868 128.169 310.204 127.236C311.54 126.303 313.043 125.631 314.628 125.259C316.213 124.887 317.848 124.822 319.44 125.067C322.656 125.563 325.503 127.294 327.353 129.878C329.204 132.463 329.907 135.691 329.308 138.85C329.011 140.415 328.404 141.916 327.52 143.268C326.637 144.619 325.494 145.795 324.159 146.728C322.823 147.661 321.32 148.332 319.735 148.704C318.15 149.076 316.515 149.142 314.922 148.896Z" fill="black"/>
<path d="M15.2147 199.896L13.7706 196.081" stroke="#BBE8E2" stroke-width="2"/>
<path d="M154.538 105.575C157.229 133.887 188.228 148.482 213.629 137.111C235.074 127.515 246.587 91.057 234.025 71.9027C222.215 53.893 195.469 50.7833 177.506 61.9249C160.427 72.5196 152.771 87.0698 154.538 105.575Z" stroke="#BBE5DA" stroke-width="2"/>
<path d="M39.6245 92.1813C7.08195 133.943 78.3393 160.5 100.753 122.363C109.418 107.634 107.875 85.3704 93.3148 74.3242C72.2264 58.3178 51.8107 76.5563 39.6245 92.1813Z" stroke="#BAE6DE" stroke-width="2"/>
<path d="M108.271 177.518C119.528 160.996 138.895 159.832 154.029 172.157C154.274 172.359 154.557 172.505 154.856 172.585C155.154 172.664 155.46 172.674 155.75 172.615C159.324 171.877 159.957 170.217 157.649 167.635C145.436 153.963 130.969 151.953 114.246 161.607C108.443 164.952 104.519 169.982 102.475 176.697C101.98 178.3 102.277 181.372 104.829 180.303C106.235 179.719 107.432 178.75 108.271 177.518Z" stroke="#467C7D" stroke-width="2"/>
<path d="M223.706 96.3373C226.466 91.9929 227.234 86.7152 225.839 81.6655C224.444 76.6157 221.002 72.2074 216.269 69.4103C213.925 68.0253 211.335 67.0776 208.647 66.6212C205.959 66.1649 203.225 66.209 200.601 66.7507C197.977 67.2925 195.515 68.3213 193.356 69.7787C191.196 71.2361 189.381 73.0934 188.014 75.2446C185.254 79.5889 184.486 84.8666 185.881 89.9164C187.276 94.9662 190.718 99.3745 195.451 102.172C197.795 103.557 200.384 104.504 203.073 104.961C205.761 105.417 208.495 105.373 211.119 104.831C213.742 104.289 216.204 103.261 218.364 101.803C220.524 100.346 222.339 98.4884 223.706 96.3373Z" stroke="#8A8C90" stroke-width="2"/>
<path d="M63.2645 114.879C65.0112 116.298 67.0596 117.337 69.2926 117.939C71.5257 118.54 73.8995 118.692 76.2789 118.384C78.6582 118.077 80.9964 117.317 83.1599 116.147C85.3233 114.978 87.2697 113.423 88.8878 111.569C92.1558 107.827 93.8886 103.099 93.7049 98.4273C93.5213 93.7552 91.4363 89.5209 87.9086 86.6561C86.1618 85.2376 84.1135 84.198 81.8804 83.5967C79.6474 82.9953 77.2734 82.844 74.8941 83.1514C72.5147 83.4587 70.1765 84.2187 68.0131 85.388C65.8497 86.5573 63.9034 88.1129 62.2852 89.9661C59.0173 93.7087 57.2845 98.4362 57.4682 103.108C57.6518 107.78 59.7368 112.015 63.2645 114.879Z" stroke="#898D94" stroke-width="2"/>
<path d="M258.66 15.5642C263.46 22.7376 265.894 31.7359 265.96 42.5595C266.091 69.5358 265.9 112.5 265.386 171.451C265.294 181.969 264.331 191.349 262.498 199.591C159.192 227.152 105.265 227.457 15.2136 199.591L13.7695 195.775C7.72914 168.608 4.1088 149.378 2.90865 138.083C1.11501 121.32 0.145719 95.3994 0.000645392 60.3212C-0.157616 19.7232 28.8043 -14.5983 71.7526 14.4767C95.9073 30.8265 109.735 46.299 128.252 64.0034C128.571 64.3052 128.951 64.5409 129.368 64.6958C129.784 64.8507 130.228 64.9214 130.672 64.9035C131.116 64.8856 131.55 64.7794 131.947 64.5917C132.345 64.4039 132.696 64.1386 132.98 63.8124C158.401 34.9092 217.472 -29.5553 258.66 15.5642ZM154.543 105.269C157.234 133.581 188.233 148.176 213.634 136.805C235.079 127.209 246.592 90.7508 234.03 71.5964C222.22 53.5868 195.474 50.4771 177.511 61.6187C160.432 72.2133 152.776 86.7635 154.543 105.269ZM39.6255 91.8764C7.08292 133.638 78.3402 160.195 100.754 122.058C109.419 107.33 107.876 85.0656 93.3157 74.0194C72.2274 58.0129 51.8117 76.2515 39.6255 91.8764ZM108.271 177.212C119.528 160.691 138.895 159.527 154.029 171.851C154.274 172.053 154.557 172.2 154.856 172.279C155.155 172.359 155.46 172.369 155.75 172.309C159.324 171.572 159.957 169.912 157.649 167.33C145.437 153.657 130.969 151.648 114.246 161.301C108.443 164.646 104.519 169.676 102.475 176.392C101.981 177.995 102.277 181.066 104.829 179.998C106.235 179.413 107.432 178.445 108.271 177.212Z" fill="#276EF6"/>
<path d="M213.629 137.111C188.228 148.482 157.229 133.887 154.538 105.575C152.771 87.0698 160.427 72.5196 177.506 61.9249C195.469 50.7833 222.215 53.893 234.025 71.9027C246.587 91.057 235.074 127.515 213.629 137.111ZM223.701 96.3378C226.461 91.9934 227.229 86.7157 225.834 81.666C224.439 76.6162 220.997 72.2079 216.264 69.4108C213.92 68.0258 211.33 67.0781 208.642 66.6217C205.954 66.1654 203.22 66.2095 200.596 66.7512C197.972 67.293 195.51 68.3218 193.351 69.7792C191.191 71.2366 189.376 73.0939 188.009 75.245C185.248 79.5894 184.481 84.8671 185.876 89.9169C187.27 94.9667 190.713 99.375 195.446 102.172C197.789 103.557 200.379 104.505 203.068 104.961C205.756 105.417 208.49 105.373 211.114 104.832C213.737 104.29 216.199 103.261 218.359 101.804C220.519 100.346 222.334 98.4889 223.701 96.3378Z" fill="#FEF9EF"/>
<path d="M100.753 122.364C78.3393 160.501 7.08195 133.945 39.6245 92.1831C51.8107 76.5582 72.2264 58.3196 93.3148 74.3261C107.875 85.3723 109.418 107.636 100.753 122.364ZM63.2675 114.88C65.0142 116.298 67.0626 117.338 69.2956 117.939C71.5286 118.541 73.9025 118.692 76.2819 118.385C78.6612 118.077 80.9994 117.317 83.1628 116.148C85.3263 114.979 87.2727 113.423 88.8908 111.57C92.1588 107.827 93.8916 103.1 93.7079 98.4277C93.5243 93.7556 91.4393 89.5213 87.9116 86.6565C86.1648 85.238 84.1165 84.1984 81.8834 83.5971C79.6504 82.9957 77.2764 82.8444 74.8971 83.1518C72.5177 83.4592 70.1795 84.2192 68.0161 85.3884C65.8526 86.5577 63.9064 88.1133 62.2882 89.9665C59.0202 93.7092 57.2875 98.4366 57.4711 103.109C57.6548 107.781 59.7398 112.015 63.2675 114.88Z" fill="#FCFCF8"/>
<path d="M154.029 172.157C138.895 159.832 119.528 160.996 108.271 177.518C107.432 178.75 106.235 179.719 104.829 180.303C102.277 181.372 101.98 178.3 102.475 176.697C104.519 169.982 108.443 164.952 114.246 161.607C130.969 151.953 145.436 153.963 157.649 167.635C159.957 170.217 159.324 171.877 155.75 172.615C155.46 172.674 155.154 172.664 154.856 172.585C154.557 172.505 154.274 172.359 154.029 172.157Z" fill="black"/>
<path d="M223.706 96.3373C222.339 98.4884 220.524 100.346 218.364 101.803C216.204 103.261 213.742 104.289 211.119 104.831C208.495 105.373 205.761 105.417 203.073 104.961C200.384 104.504 197.795 103.557 195.451 102.172C190.718 99.3745 187.276 94.9662 185.881 89.9164C184.486 84.8666 185.254 79.5889 188.014 75.2446C189.381 73.0934 191.196 71.2361 193.356 69.7787C195.515 68.3213 197.977 67.2925 200.601 66.7507C203.225 66.209 205.959 66.1649 208.647 66.6212C211.335 67.0776 213.925 68.0253 216.269 69.4103C221.002 72.2074 224.444 76.6157 225.839 81.6655C227.234 86.7152 226.466 91.9929 223.706 96.3373Z" fill="black"/>
<path d="M63.2645 114.879C59.7368 112.015 57.6518 107.78 57.4682 103.108C57.2845 98.4362 59.0173 93.7087 62.2852 89.9661C63.9034 88.1129 65.8497 86.5573 68.0131 85.388C70.1765 84.2187 72.5147 83.4587 74.8941 83.1514C77.2734 82.844 79.6474 82.9953 81.8804 83.5967C84.1135 84.198 86.1618 85.2376 87.9086 86.6561C91.4363 89.5209 93.5213 93.7552 93.7049 98.4273C93.8886 103.099 92.1558 107.827 88.8878 111.569C87.2697 113.423 85.3233 114.978 83.1599 116.147C80.9964 117.317 78.6582 118.077 76.2789 118.384C73.8995 118.692 71.5257 118.54 69.2926 117.939C67.0596 117.337 65.0112 116.298 63.2645 114.879Z" fill="black"/>
</svg>
