<svg width="32" height="32" viewBox="0 0 32 32" fill="none" xmlns="http://www.w3.org/2000/svg">
<path d="M4 18.8166C3.99933 17.596 4.30588 16.3953 4.89069 15.328C5.47549 14.2608 6.31924 13.3623 7.34219 12.7174C7.61217 10.5846 8.64001 8.62452 10.2333 7.20404C11.8267 5.78356 13.8763 5 15.9987 5C18.1211 5 20.1707 5.78356 21.7641 7.20404C23.3574 8.62452 24.3852 10.5846 24.6552 12.7174C25.9241 13.5172 26.911 14.7027 27.4752 16.1046C28.0394 17.5065 28.152 19.0533 27.7969 20.5239C27.4417 21.9945 26.637 23.3139 25.4977 24.2935C24.3584 25.2732 22.9426 25.8631 21.4527 25.979L10.5447 26C6.88405 25.6972 4 22.5984 4 18.8166ZM21.2869 23.7754C22.3186 23.695 23.2988 23.2864 24.0876 22.6078C24.8764 21.9293 25.4333 21.0156 25.6789 19.9972C25.9245 18.9788 25.8461 17.9078 25.455 16.9372C25.0639 15.9666 24.3801 15.1461 23.5012 14.5928L22.6209 14.0369L22.49 12.9959C22.2861 11.3975 21.5147 9.92906 20.32 8.86498C19.1252 7.8009 17.5889 7.21402 15.9982 7.21402C14.4074 7.21402 12.8711 7.8009 11.6764 8.86498C10.4816 9.92906 9.71021 11.3975 9.50631 12.9959L9.37542 14.0369L8.49733 14.5928C7.61848 15.146 6.93465 15.9665 6.5435 16.937C6.15236 17.9074 6.07391 18.9783 6.31936 19.9967C6.56481 21.0151 7.1216 21.9288 7.91021 22.6074C8.69883 23.286 9.67893 23.6948 10.7105 23.7754L10.8993 23.7897H21.0982L21.2869 23.7754ZM17.0895 16.0538H20.3619L15.9987 21.5795L11.6355 16.0538H14.9079V11.6332H17.0895V16.0538Z" fill="white"/>
</svg>
