<svg width="18" height="17" viewBox="0 0 18 17" fill="none" xmlns="http://www.w3.org/2000/svg">
<path d="M15.5521 6.48126C13.9158 3.91001 11.5217 2.4296 9 2.4296C7.73917 2.4296 6.51375 2.79793 5.39459 3.48501C4.27542 4.17918 3.26959 5.1921 2.44792 6.48126C1.73959 7.59335 1.73959 9.3996 2.44792 10.5117C4.08417 13.09 6.47834 14.5633 9 14.5633C10.2608 14.5633 11.4863 14.195 12.6054 13.5079C13.7246 12.8138 14.7304 11.8008 15.5521 10.5117C16.2604 9.40668 16.2604 7.59335 15.5521 6.48126ZM9 11.3617C7.41334 11.3617 6.13834 10.0796 6.13834 8.50001C6.13834 6.92043 7.41334 5.63835 9 5.63835C10.5867 5.63835 11.8617 6.92043 11.8617 8.50001C11.8617 10.0796 10.5867 11.3617 9 11.3617Z" fill="#1E58F7"/>
<path d="M9 6.47418C7.88791 6.47418 6.98125 7.38085 6.98125 8.50002C6.98125 9.6121 7.88791 10.5188 9 10.5188C10.1121 10.5188 11.0258 9.6121 11.0258 8.50002C11.0258 7.38793 10.1121 6.47418 9 6.47418Z" fill="#1E58F7"/>
</svg>
