<?xml version="1.0" encoding="UTF-8"?>
<svg class="object-cover" id="Layer_2" data-name="Layer 2" xmlns="http://www.w3.org/2000/svg" viewBox="0 0 1958 890">
  <defs>
    <style>
      .cls-1 {
        fill: none;
      }

      .cls-2 {
        fill: #f2f7ff;
      }

      .cls-3 {
        fill: #030303;
      }

      .cls-4 {
        fill: #fff;
      }

      .cls-5 {
        fill: #8bd257;
      }

      .cls-6 {
        fill: #cfe2ff;
      }

      .cls-7 {
        fill: #6fa8ff;
      }

      .cls-8 {
        fill: rgba(232, 238, 197, .98);
      }

      .cls-9 {
        opacity: .4;
      }

      .cls-10 {
        opacity: .5;
      }
    </style>
  </defs>
  <g id="Layer_1-2" data-name="Layer 1">
    <path class="cls-1" d="M0,0H1958V890H0V0Z"/>
    <path class="cls-2" d="M282.05,450.82c-.75-1.7-3.27-1.37-3.35,.43v.17c-.03,.59-.42,1.08-.99,1.25-1.59,.47-1.14,2.81,.56,2.86,.6,.02,1.16,.39,1.41,.94l.07,.16c.76,1.7,3.27,1.37,3.35-.43v-.17c.03-.59,.42-1.08,.99-1.25,1.59-.47,1.14-2.81-.55-2.86-.6-.02-1.16-.39-1.41-.94l-.07-.16Z"/>
    <path class="cls-2" d="M1686.06,394.59c-.76-1.7-3.28-1.37-3.35,.43v.17c-.04,.59-.42,1.08-.99,1.25-1.59,.47-1.14,2.81,.55,2.86,.61,.02,1.16,.39,1.41,.94l.07,.16c.76,1.7,3.28,1.37,3.35-.43v-.17c.03-.59,.42-1.08,.99-1.25,1.59-.47,1.14-2.81-.56-2.86-.6-.02-1.16-.39-1.4-.94l-.07-.16Z"/>
    <path class="cls-2" d="M1565.06,133.78c-.76-1.7-3.28-1.37-3.35,.43v.17c-.04,.59-.42,1.08-.99,1.25-1.59,.47-1.14,2.81,.55,2.86,.61,.02,1.16,.39,1.41,.94l.07,.16c.76,1.7,3.28,1.37,3.35-.43v-.17c.03-.59,.42-1.08,.99-1.25,1.59-.47,1.14-2.81-.56-2.86-.6-.02-1.16-.39-1.4-.94l-.07-.16Z"/>
    <path class="cls-2" d="M486.05,145.19c-.76-1.7-3.27-1.37-3.35,.43v.17c-.03,.59-.42,1.08-.99,1.25-1.59,.47-1.14,2.81,.55,2.85,.6,.02,1.16,.39,1.41,.94l.07,.16c.76,1.7,3.27,1.37,3.35-.43v-.17c.03-.59,.42-1.08,.99-1.25,1.59-.47,1.14-2.81-.55-2.86-.6-.02-1.16-.39-1.41-.94l-.07-.16Z"/>
    <path class="cls-6" d="M317.1,390.7c-.39-.89-1.71-.72-1.75,.23v.09c-.02,.31-.22,.57-.51,.65-.83,.24-.59,1.47,.29,1.49,.31,0,.6,.2,.73,.49l.04,.08c.4,.89,1.71,.72,1.75-.23v-.09c.02-.31,.22-.57,.52-.65,.83-.25,.59-1.47-.29-1.49-.32,0-.6-.2-.73-.49l-.04-.09Z"/>
    <path class="cls-5" d="M1721.1,334.46c-.39-.89-1.71-.72-1.75,.23v.09c-.01,.31-.22,.57-.51,.65-.83,.25-.6,1.47,.29,1.49,.31,0,.6,.2,.73,.49l.04,.08c.39,.89,1.71,.72,1.75-.23v-.09c.02-.31,.22-.57,.51-.65,.84-.25,.6-1.47-.29-1.49-.31,0-.6-.2-.73-.49l-.04-.09Z"/>
    <path class="cls-6" d="M1600.1,73.66c-.39-.89-1.71-.72-1.75,.23v.09c-.01,.31-.22,.57-.51,.65-.83,.25-.6,1.47,.29,1.49,.31,0,.6,.2,.73,.49l.04,.09c.39,.89,1.71,.72,1.75-.23v-.09c.02-.31,.22-.57,.51-.65,.84-.25,.6-1.47-.29-1.49-.31,0-.6-.2-.73-.49l-.04-.09Z"/>
    <path class="cls-6" d="M521.1,85.07c-.39-.89-1.71-.72-1.75,.23v.09c-.02,.31-.22,.57-.51,.65-.83,.25-.59,1.47,.29,1.49,.31,0,.6,.2,.73,.49l.04,.09c.4,.89,1.71,.72,1.75-.23v-.09c.02-.31,.22-.57,.52-.65,.83-.25,.59-1.47-.29-1.49-.32,0-.6-.2-.73-.49l-.04-.09Z"/>
    <path class="cls-8" d="M119.22,526.11c-.61-1.38-2.66-1.12-2.72,.35v.14c-.03,.48-.34,.88-.8,1.02-1.29,.38-.92,2.28,.45,2.32,.49,.01,.94,.32,1.14,.77l.06,.13c.61,1.38,2.66,1.12,2.72-.35v-.14c.03-.48,.34-.88,.8-1.02,1.29-.38,.92-2.28-.45-2.32-.49-.01-.94-.32-1.14-.77l-.06-.13Z"/>
    <path class="cls-8" d="M1523.22,469.88c-.62-1.38-2.67-1.12-2.73,.35v.14c-.02,.48-.34,.88-.8,1.02-1.29,.38-.92,2.29,.45,2.32,.49,.01,.94,.32,1.14,.77l.06,.13c.62,1.38,2.67,1.12,2.73-.35v-.14c.02-.48,.34-.88,.8-1.02,1.29-.38,.92-2.28-.45-2.32-.49-.01-.94-.32-1.14-.77l-.06-.13Z"/>
    <path class="cls-8" d="M1402.22,209.07c-.62-1.38-2.67-1.12-2.73,.35v.14c-.02,.48-.34,.88-.8,1.02-1.29,.38-.92,2.29,.45,2.32,.49,.01,.94,.32,1.14,.77l.06,.13c.62,1.38,2.67,1.12,2.73-.35v-.14c.02-.48,.34-.88,.8-1.02,1.29-.38,.92-2.28-.45-2.32-.49-.01-.94-.32-1.14-.77l-.06-.13Z"/>
    <path class="cls-8" d="M323.22,220.48c-.62-1.38-2.66-1.12-2.73,.35v.14c-.02,.48-.34,.88-.8,1.02-1.29,.38-.92,2.29,.45,2.32,.49,.01,.94,.32,1.14,.77l.06,.13c.61,1.38,2.66,1.12,2.72-.35v-.14c.03-.48,.34-.88,.8-1.02,1.29-.38,.93-2.28-.45-2.32-.49-.01-.94-.32-1.14-.77l-.06-.13Z"/>
    <g class="cls-10">
      <path class="cls-7" d="M300.25,448.62l27.15-10.5c6.18-2.39,13.9,.32,17.23,6.04l6.33,10.88c3.33,5.73,1.03,12.31-5.16,14.7l-27.15,10.5c-6.18,2.39-13.9-.32-17.23-6.04l-6.33-10.88c-3.33-5.73-1.03-12.31,5.16-14.7Z"/>
      <path class="cls-4" d="M330.94,444.41h0c3.09-1.19,6.94,.16,8.6,3.02l1.67,2.86c1.66,2.86,.51,6.15-2.57,7.34h0c-3.09,1.19-6.94-.16-8.6-3.02l-1.67-2.86c-1.66-2.86-.51-6.15,2.57-7.34Z"/>
      <path class="cls-3" d="M333.31,447.65l.54-.21c1.97-.76,4.43,.1,5.49,1.93h0c1.06,1.83,.33,3.92-1.64,4.68l-.54,.21c-1.97,.76-4.43-.1-5.49-1.93h0c-1.06-1.83-.33-3.92,1.64-4.68Z"/>
      <path class="cls-4" d="M319.77,448.73h0c3.09-1.19,6.94,.16,8.6,3.02l1.67,2.86c1.66,2.86,.51,6.15-2.57,7.34h0c-3.09,1.19-6.94-.16-8.6-3.02l-1.67-2.86c-1.66-2.86-.51-6.15,2.57-7.34Z"/>
      <path class="cls-3" d="M321.47,452.23l.54-.21c1.97-.76,4.43,.1,5.49,1.93h0c1.06,1.83,.33,3.92-1.64,4.68l-.54,.21c-1.97,.76-4.43-.1-5.49-1.93h0c-1.06-1.83-.33-3.92,1.64-4.68Z"/>
    </g>
    <g class="cls-9">
      <path class="cls-7" d="M1653.4,260.2l-38.81,15.01c-4.12,1.59-5.66,5.98-3.44,9.8l8.02,13.77c2.22,3.82,7.37,5.62,11.49,4.03l38.81-15.01c4.12-1.59,5.66-5.98,3.44-9.8l-8.02-13.77c-2.22-3.82-7.37-5.62-11.49-4.03Z"/>
      <path class="cls-4" d="M1622.55,278.81h0c-3.35,1.29-4.6,4.86-2.79,7.96l.18,.3c1.81,3.1,5.98,4.57,9.33,3.27h0c3.35-1.29,4.6-4.86,2.79-7.96l-.18-.3c-1.81-3.1-5.98-4.57-9.33-3.27Z"/>
      <path class="cls-3" d="M1624.61,281.64l-2.1,.81c-1.72,.66-2.36,2.5-1.43,4.09h0c.93,1.59,3.07,2.35,4.79,1.68l2.1-.81c1.72-.66,2.36-2.5,1.43-4.09h0c-.93-1.59-3.07-2.35-4.79-1.68Z"/>
      <path class="cls-4" d="M1634.68,274.12h0c-3.35,1.29-4.6,4.86-2.79,7.96l.18,.3c1.81,3.1,5.98,4.57,9.33,3.27h0c3.35-1.29,4.6-4.86,2.79-7.96l-.18-.3c-1.81-3.1-5.98-4.57-9.33-3.27Z"/>
      <path class="cls-3" d="M1637.45,276.68l-2.1,.81c-1.72,.66-2.36,2.5-1.43,4.09h0c.93,1.59,3.07,2.35,4.79,1.68l2.1-.81c1.72-.66,2.36-2.5,1.43-4.09h0c-.93-1.59-3.07-2.35-4.79-1.68Z"/>
    </g>
    <g class="cls-9">
      <path class="cls-7" d="M993.25,93.35l59.71,23.09c4.12,1.59,5.66,5.98,3.44,9.8l-19.74,33.92c-2.22,3.82-7.37,5.62-11.49,4.03l-59.71-23.09c-4.12-1.59-5.66-5.98-3.44-9.8l19.74-33.92c2.22-3.82,7.37-5.62,11.49-4.03Z"/>
      <path class="cls-4" d="M1035.43,127.45l5,.37c3.27,.24,3.32,1.29,.11,2.34h0c-3.21,1.05-8.46,1.71-11.73,1.47l-5-.37c-3.27-.24-3.32-1.29-.11-2.34h0c3.21-1.05,8.46-1.71,11.73-1.47Z"/>
      <path class="cls-3" d="M1033.12,128.47l5.64,.42c1.64,.12,1.66,.64,.06,1.17h0c-1.6,.53-4.23,.85-5.87,.73l-5.64-.42c-1.64-.12-1.66-.64-.06-1.17h0c1.6-.53,4.23-.85,5.87-.73Z"/>
      <path class="cls-4" d="M1018.59,126.2l5,.37c3.27,.24,3.32,1.29,.11,2.34h0c-3.21,1.05-8.46,1.71-11.73,1.47l-5-.37c-3.27-.24-3.32-1.29-.11-2.34h0c3.21-1.05,8.46-1.71,11.73-1.47Z"/>
      <path class="cls-3" d="M1015.28,127.16l5.64,.42c1.64,.12,1.66,.64,.06,1.17h0c-1.6,.53-4.23,.85-5.87,.73l-5.64-.42c-1.64-.12-1.66-.64-.06-1.17h0c1.6-.53,4.23-.85,5.87-.73Z"/>
    </g>
    <rect class="cls-1" x="1532" y="567.25" width="87" height="48.09"/>
    <g class="cls-9">
      <polygon class="cls-1" points="363.76 74.13 310.64 130.28 369.24 167.11 422.36 110.95 363.76 74.13"/>
    </g>
  </g>
</svg>
