<svg width="49" height="59" viewBox="0 0 49 59" fill="none" xmlns="http://www.w3.org/2000/svg">
<mask id="path-1-outside-1_183_61269" maskUnits="userSpaceOnUse" x="-1" y="0.0605469" width="50" height="59" fill="black">
<rect fill="white" x="-1" y="0.0605469" width="50" height="59"/>
<path d="M18.6143 15.0219C17.9332 14.6574 17.5926 14.0461 17.5926 13.1883C17.5926 12.6522 17.715 12.2018 17.9598 11.8372C18.2046 11.4726 18.5185 11.2903 18.9017 11.2903C19.3061 11.2903 19.6467 11.5101 19.9234 11.9498C20.2001 12.3894 20.3384 12.9095 20.3384 13.51C20.3384 13.5529 20.3278 13.6226 20.3065 13.7191C20.2852 13.8156 20.2746 13.8853 20.2746 13.9282C20.3172 13.9067 20.3544 13.8853 20.3863 13.8639C20.4183 13.8424 20.4449 13.821 20.4662 13.7995C20.4874 13.7781 20.5087 13.7673 20.53 13.7673C20.6577 13.7888 20.7216 13.3813 20.7216 12.5449C20.7216 12.0088 20.5619 11.4565 20.2427 10.8882C19.9234 10.3199 19.4232 10.0357 18.742 10.0357C18.146 10.0357 17.7043 10.3467 17.417 10.9686C17.1296 11.5906 16.986 12.309 16.986 13.124C16.986 13.7673 17.3159 14.5394 17.9757 15.4401L18.6143 15.0219ZM24.7765 14.3142C24.6914 14.1641 24.6062 13.8531 24.5211 13.3813C24.5211 12.6522 24.6701 12.0999 24.9681 11.7246C25.2661 11.3493 25.6386 11.1616 26.0856 11.1616C26.5751 11.1616 26.9796 11.3976 27.2989 11.8694C27.6181 12.3412 27.7778 12.8237 27.7778 13.317C27.7778 14.2392 27.3627 14.8075 26.5326 15.0219C26.7029 15.1077 26.8997 15.1882 27.1232 15.2632C27.3467 15.3383 27.6075 15.4401 27.9055 15.5688C28.2248 14.518 28.3844 13.5958 28.3844 12.8023C28.3844 11.73 28.145 10.9204 27.666 10.3735C27.1871 9.82663 26.6177 9.55319 25.9579 9.55319C25.2554 9.55319 24.6967 9.76229 24.2816 10.1805C23.8665 10.5987 23.659 11.1188 23.659 11.7407C23.659 12.62 23.8293 13.392 24.1699 14.0569C24.2124 14.0569 24.3189 14.0944 24.4891 14.1695C24.6594 14.2445 24.7552 14.2928 24.7765 14.3142ZM26.9796 17.2738C24.5956 18.9895 22.6799 19.8473 21.2324 19.8473C19.934 19.8473 18.6994 19.3004 17.5287 18.2067C17.699 18.6356 17.8906 18.9573 18.1034 19.1718L19.2209 20.2333C19.9659 21.0268 20.8387 21.4236 21.8391 21.4236C23.0736 21.4236 24.5956 20.7695 26.4049 19.4613L28.0332 18.2067C28.5653 17.8636 28.8314 17.4239 28.8314 16.8878C28.8314 16.6947 28.8101 16.5553 28.7676 16.4696C28.4908 16.1908 27.4691 15.6975 25.7024 14.9898C23.9357 14.2821 22.7118 13.9282 22.0307 13.9282C21.3921 13.9282 20.4449 14.2928 19.189 15.0219C17.9332 15.7511 17.3052 16.4803 17.3052 17.2094C17.3052 17.3596 17.4436 17.574 17.7203 17.8528C18.742 18.8822 19.8702 19.3969 21.1047 19.3969C22.5309 19.3969 24.404 18.5391 26.7241 16.8234C26.7667 16.8449 26.8093 16.9146 26.8519 17.0325C26.8944 17.1505 26.937 17.2309 26.9796 17.2738ZM31.3218 55.2977C32.1094 56.6917 33.2801 57.3887 34.834 57.3887C35.1107 57.3887 35.3821 57.3619 35.6481 57.3083C35.9142 57.2546 36.1377 57.1957 36.3186 57.1313C36.4996 57.067 36.6965 56.9812 36.9093 56.874C37.1222 56.7667 37.2765 56.681 37.3723 56.6166C37.4681 56.5523 37.5905 56.4611 37.7395 56.3432C37.8885 56.2252 37.9736 56.1555 37.9949 56.1341L41.2516 53.3675C42.1882 52.6169 43.1779 51.995 44.2209 51.5017C45.2639 51.0085 46.0143 50.6224 46.4719 50.3436C46.9295 50.0648 47.1903 49.6466 47.2542 49.089C47.1264 48.5314 46.871 48.1025 46.4879 47.8023C46.1047 47.502 45.7109 47.2929 45.3065 47.175C44.9021 47.057 44.4817 46.7568 44.0453 46.2742C43.609 45.7917 43.2844 45.1108 43.0715 44.2315L42.8799 43.1056C42.8587 43.0198 42.8108 42.8482 42.7363 42.5909C42.6618 42.3335 42.6032 42.1512 42.5607 42.044C42.5181 42.0011 42.4542 41.9797 42.3691 41.9797C42.1349 41.9797 41.8529 42.1352 41.523 42.4461C41.1931 42.7571 40.8631 43.1056 40.5332 43.4916C40.2033 43.8776 39.7829 44.2261 39.272 44.5371C38.7612 44.8481 38.2397 45.0036 37.7075 45.0036C36.3878 45.0036 35.5151 44.5854 35.0894 43.749C34.7701 43.32 34.536 42.6445 34.387 41.7223C33.9613 41.3577 33.6313 41.1754 33.3972 41.1754C32.4393 41.1754 31.9604 42.1727 31.9604 44.1672V44.7462V46.998C32.0456 47.6843 32.0881 48.2312 32.0881 48.6387C32.0881 48.9818 32.0828 49.2552 32.0722 49.459C32.0615 49.6627 32.0402 49.8504 32.0083 50.0219C31.9764 50.1935 31.9178 50.5581 31.8327 51.1157C31.7688 51.5232 31.6837 52.188 31.5773 53.1102L31.3218 55.2333V55.2977ZM4.24649 54.3004C6.05577 54.5578 8.05662 55.0832 10.249 55.8767C12.484 56.7131 13.857 57.1313 14.3678 57.1313C15.6875 57.1313 16.7837 56.5844 17.6564 55.4907C17.7842 55.1047 17.848 54.665 17.848 54.1718C17.848 52.3917 16.7731 50.1506 14.6232 47.4484L13.41 45.7435C13.1545 45.3574 12.8246 44.8052 12.4202 44.0867C12.0158 43.3683 11.6805 42.7946 11.4144 42.3657C11.1484 41.9368 10.7599 41.5079 10.249 41.0789C9.73819 40.65 9.17412 40.3605 8.55683 40.2104C7.76926 40.3605 7.24244 40.6178 6.97637 40.9824C6.7103 41.347 6.55066 41.7384 6.49745 42.1566C6.44423 42.5748 6.32184 42.8482 6.13027 42.9769C5.95998 43.0627 5.66198 43.1485 5.23627 43.2343C5.12984 43.2343 4.96488 43.245 4.74138 43.2664C4.51788 43.2879 4.35292 43.2986 4.24649 43.2986C3.22478 43.2986 2.54364 43.3844 2.20307 43.556C1.73478 44.0921 1.50064 44.7033 1.50064 45.3896C1.50064 45.6898 1.57514 46.1992 1.72414 46.9176C1.87314 47.6361 1.94764 48.1883 1.94764 48.5743C1.94764 49.3678 1.70817 50.1506 1.22925 50.9227C0.750319 51.6947 0.510856 52.2952 0.510856 52.7242C0.681141 53.4533 1.92635 53.9787 4.24649 54.3004ZM9.16347 37.7021C9.16347 36.4154 10.0736 33.3642 10.7548 31.7021C11 30 10.8401 30.7721 11.5 30C11.4671 30.0381 11.6384 30.0643 11.5 30C11.5 30.5 11.5213 30.5214 11.5 30.5C10.9891 31.1005 11.8348 30.6079 11.0473 32.4415C10.2597 34.2752 9.8659 35.7817 9.8659 36.9613C9.8659 37.7977 10.0681 38.5268 10.4725 39.1488C10.877 39.7707 11.8561 40.6715 13.41 41.851L15.3576 43.1699C17.5287 44.9499 18.6143 46.2474 18.6143 47.0624C18.6143 47.427 18.3748 47.8237 17.8959 48.2526C17.417 48.6816 16.9647 48.896 16.539 48.896C16.4964 48.896 16.4751 48.9389 16.4751 49.0247C16.4751 49.0676 16.4857 49.1158 16.507 49.1695C16.5283 49.2231 16.5922 49.3464 16.6986 49.5394C16.805 49.7324 16.9221 49.9576 17.0498 50.215C17.8799 51.2658 19.4764 51.7912 21.8391 51.7912C25.9685 51.7912 29.172 50.097 31.4496 46.7085C31.4496 45.7435 31.4389 45.143 31.4176 44.9071C31.3963 44.6711 31.3857 44.446 31.3857 44.2315C31.3857 41.8081 31.9711 40.5964 33.1418 40.5964C33.5036 40.5964 33.8761 40.7251 34.2593 40.9824C34.4295 39.8672 34.5147 38.5912 34.5147 37.1543C34.5147 35.4386 34.387 33.9696 34.1315 32.7471C33.8761 31.5247 33.5675 30.5864 33.2056 29.9323C32.8438 29.2782 32.4766 28.6938 32.1041 28.1791C31.7316 27.6644 31.407 27.0961 31.1303 26.4741C30.8536 25.8522 30.6939 25.1338 30.6513 24.3188C30.1618 23.3537 29.7041 22.3779 29.2784 21.3914C28.8527 20.4049 28.4589 19.5578 28.0971 18.8501L26.4049 20.1047C24.6381 21.4129 23.1162 22.067 21.8391 22.067C20.5832 22.067 19.6679 21.7453 19.0932 21.1019L18.1034 20.1047C18.0183 20.6408 17.7735 21.3485 17.3691 22.2278L16.2835 24.4475C15.9855 25.1981 15.762 25.804 15.613 26.2651C15.464 26.7261 15.3895 27.0264 15.3895 27.1658C15.3895 27.3052 15.3842 27.4285 15.3736 27.5357C15.3629 27.643 15.3363 27.7609 15.2937 27.8896L13.857 30.6561C12.3244 33.6371 11.5581 36.1785 11.5581 38.2802C11.5581 38.559 11.6696 39.9105 11.7548 40.511C10.9246 39.932 9.16347 38.753 9.16347 37.7021ZM23.8506 54.9438C21.4666 54.9438 19.5722 55.2762 18.1673 55.9411V55.8767C17.3797 57.0134 16.2516 57.5817 14.7829 57.5817C13.8676 57.5817 12.4308 57.2386 10.4725 56.5523C8.51426 55.866 6.79012 55.3513 5.30013 55.0082C5.12984 54.9653 4.78395 54.9009 4.26245 54.8151C3.74095 54.7294 3.26735 54.6382 2.84163 54.5417C2.41592 54.4452 1.96892 54.3219 1.50064 54.1718C1.03235 54.0216 0.665177 53.8286 0.399106 53.5927C0.133035 53.3568 0 53.0887 0 52.7885C0 52.381 0.063857 52.0486 0.191571 51.7912C0.234142 51.7055 0.329928 51.5446 0.478927 51.3087C0.627927 51.0728 0.729034 50.9066 0.782248 50.8101C0.835462 50.7136 0.909962 50.5688 1.00575 50.3758C1.10153 50.1828 1.17071 50.0273 1.21328 49.9094C1.25585 49.7914 1.2931 49.6466 1.32503 49.4751C1.35696 49.3035 1.37292 49.1319 1.37292 48.9604C1.37292 48.8102 1.2931 48.2419 1.13346 47.2554C0.973819 46.2689 0.893997 45.6469 0.893997 45.3896C0.893997 44.5317 1.10153 43.8669 1.5166 43.3951C1.93167 42.9233 2.34142 42.6874 2.74585 42.6874H4.88506C5.09791 42.6874 5.38527 42.5802 5.74713 42.3657C5.87484 42.0655 5.97063 41.8081 6.03448 41.5936L6.22605 41.0789C6.24734 40.9931 6.28459 40.8966 6.3378 40.7894C6.39102 40.6822 6.48148 40.5535 6.6092 40.4034C6.4602 40.2104 6.3857 39.9637 6.3857 39.6635V39.1488C6.3857 38.677 6.71562 37.7119 7.37548 36.2536L8.10983 35.0633L8.71647 33.9374C8.95062 33.487 9.09962 33.1653 9.16347 32.9723L9.51469 32.1359C9.66369 31.7713 9.79672 31.3585 9.91379 30.8974C10.0309 30.4363 10.1639 29.8305 10.3129 29.0798C10.6109 27.8574 11.3346 26.5814 12.484 25.2517L13.9208 23.6111C14.8787 22.4101 15.5332 21.4236 15.8844 20.6515C16.2356 19.8795 16.4112 19.0645 16.4112 18.2067C16.4112 17.8636 16.3101 16.7484 16.1079 14.8611C15.9057 12.9738 15.8046 11.1188 15.8046 9.29584C15.8046 3.80564 18.4866 1.06055 23.8506 1.06055C24.404 1.06055 24.9734 1.1088 25.5587 1.20531C26.1441 1.30182 26.8412 1.527 27.6501 1.88086C28.4589 2.23472 29.1826 2.69581 29.8212 3.26413C30.4598 3.83245 31.0451 4.63668 31.5773 5.67682C32.1094 6.71695 32.4606 7.92329 32.6309 9.29584C32.7799 10.3253 32.9129 11.5584 33.03 12.9953C33.1471 14.4322 33.2535 15.4562 33.3493 16.0674C33.4451 16.6787 33.642 17.4722 33.94 18.448C34.238 19.4238 34.685 20.3781 35.281 21.311C35.877 22.2439 36.6858 23.3323 37.7075 24.5762C39.304 26.5921 40.5545 28.5919 41.4591 30.5757C42.3638 32.5595 42.8161 34.9132 42.8161 37.6368C42.8161 38.945 42.6245 40.1996 42.2414 41.4006C42.6245 41.4006 42.9172 41.54 43.1194 41.8188C43.3216 42.0976 43.4866 42.6552 43.6143 43.4916L43.8697 44.8749C43.9549 45.3038 44.2156 45.6952 44.652 46.0491C45.0883 46.4029 45.5407 46.6817 46.0089 46.8855C46.4772 47.0892 46.9029 47.368 47.2861 47.7219C47.6692 48.0757 47.8608 48.4671 47.8608 48.896C47.8608 49.518 47.6958 50.0059 47.3659 50.3597C47.036 50.7136 46.6209 50.9817 46.1207 51.1639C45.6205 51.3462 44.8861 51.7162 43.9176 52.2738C42.9491 52.8314 41.9966 53.5069 41.06 54.3004L39.2082 55.8767C38.3567 56.6273 37.6277 57.1689 37.0211 57.5013C36.4144 57.8337 35.728 57.9999 34.9617 57.9999L33.7165 57.7747C32.1839 57.4316 31.2048 56.6917 30.7791 55.555C27.8842 55.1476 25.5747 54.9438 23.8506 54.9438Z"/>
</mask>
<path d="M18.6143 15.0219C17.9332 14.6574 17.5926 14.0461 17.5926 13.1883C17.5926 12.6522 17.715 12.2018 17.9598 11.8372C18.2046 11.4726 18.5185 11.2903 18.9017 11.2903C19.3061 11.2903 19.6467 11.5101 19.9234 11.9498C20.2001 12.3894 20.3384 12.9095 20.3384 13.51C20.3384 13.5529 20.3278 13.6226 20.3065 13.7191C20.2852 13.8156 20.2746 13.8853 20.2746 13.9282C20.3172 13.9067 20.3544 13.8853 20.3863 13.8639C20.4183 13.8424 20.4449 13.821 20.4662 13.7995C20.4874 13.7781 20.5087 13.7673 20.53 13.7673C20.6577 13.7888 20.7216 13.3813 20.7216 12.5449C20.7216 12.0088 20.5619 11.4565 20.2427 10.8882C19.9234 10.3199 19.4232 10.0357 18.742 10.0357C18.146 10.0357 17.7043 10.3467 17.417 10.9686C17.1296 11.5906 16.986 12.309 16.986 13.124C16.986 13.7673 17.3159 14.5394 17.9757 15.4401L18.6143 15.0219ZM24.7765 14.3142C24.6914 14.1641 24.6062 13.8531 24.5211 13.3813C24.5211 12.6522 24.6701 12.0999 24.9681 11.7246C25.2661 11.3493 25.6386 11.1616 26.0856 11.1616C26.5751 11.1616 26.9796 11.3976 27.2989 11.8694C27.6181 12.3412 27.7778 12.8237 27.7778 13.317C27.7778 14.2392 27.3627 14.8075 26.5326 15.0219C26.7029 15.1077 26.8997 15.1882 27.1232 15.2632C27.3467 15.3383 27.6075 15.4401 27.9055 15.5688C28.2248 14.518 28.3844 13.5958 28.3844 12.8023C28.3844 11.73 28.145 10.9204 27.666 10.3735C27.1871 9.82663 26.6177 9.55319 25.9579 9.55319C25.2554 9.55319 24.6967 9.76229 24.2816 10.1805C23.8665 10.5987 23.659 11.1188 23.659 11.7407C23.659 12.62 23.8293 13.392 24.1699 14.0569C24.2124 14.0569 24.3189 14.0944 24.4891 14.1695C24.6594 14.2445 24.7552 14.2928 24.7765 14.3142ZM26.9796 17.2738C24.5956 18.9895 22.6799 19.8473 21.2324 19.8473C19.934 19.8473 18.6994 19.3004 17.5287 18.2067C17.699 18.6356 17.8906 18.9573 18.1034 19.1718L19.2209 20.2333C19.9659 21.0268 20.8387 21.4236 21.8391 21.4236C23.0736 21.4236 24.5956 20.7695 26.4049 19.4613L28.0332 18.2067C28.5653 17.8636 28.8314 17.4239 28.8314 16.8878C28.8314 16.6947 28.8101 16.5553 28.7676 16.4696C28.4908 16.1908 27.4691 15.6975 25.7024 14.9898C23.9357 14.2821 22.7118 13.9282 22.0307 13.9282C21.3921 13.9282 20.4449 14.2928 19.189 15.0219C17.9332 15.7511 17.3052 16.4803 17.3052 17.2094C17.3052 17.3596 17.4436 17.574 17.7203 17.8528C18.742 18.8822 19.8702 19.3969 21.1047 19.3969C22.5309 19.3969 24.404 18.5391 26.7241 16.8234C26.7667 16.8449 26.8093 16.9146 26.8519 17.0325C26.8944 17.1505 26.937 17.2309 26.9796 17.2738ZM31.3218 55.2977C32.1094 56.6917 33.2801 57.3887 34.834 57.3887C35.1107 57.3887 35.3821 57.3619 35.6481 57.3083C35.9142 57.2546 36.1377 57.1957 36.3186 57.1313C36.4996 57.067 36.6965 56.9812 36.9093 56.874C37.1222 56.7667 37.2765 56.681 37.3723 56.6166C37.4681 56.5523 37.5905 56.4611 37.7395 56.3432C37.8885 56.2252 37.9736 56.1555 37.9949 56.1341L41.2516 53.3675C42.1882 52.6169 43.1779 51.995 44.2209 51.5017C45.2639 51.0085 46.0143 50.6224 46.4719 50.3436C46.9295 50.0648 47.1903 49.6466 47.2542 49.089C47.1264 48.5314 46.871 48.1025 46.4879 47.8023C46.1047 47.502 45.7109 47.2929 45.3065 47.175C44.9021 47.057 44.4817 46.7568 44.0453 46.2742C43.609 45.7917 43.2844 45.1108 43.0715 44.2315L42.8799 43.1056C42.8587 43.0198 42.8108 42.8482 42.7363 42.5909C42.6618 42.3335 42.6032 42.1512 42.5607 42.044C42.5181 42.0011 42.4542 41.9797 42.3691 41.9797C42.1349 41.9797 41.8529 42.1352 41.523 42.4461C41.1931 42.7571 40.8631 43.1056 40.5332 43.4916C40.2033 43.8776 39.7829 44.2261 39.272 44.5371C38.7612 44.8481 38.2397 45.0036 37.7075 45.0036C36.3878 45.0036 35.5151 44.5854 35.0894 43.749C34.7701 43.32 34.536 42.6445 34.387 41.7223C33.9613 41.3577 33.6313 41.1754 33.3972 41.1754C32.4393 41.1754 31.9604 42.1727 31.9604 44.1672V44.7462V46.998C32.0456 47.6843 32.0881 48.2312 32.0881 48.6387C32.0881 48.9818 32.0828 49.2552 32.0722 49.459C32.0615 49.6627 32.0402 49.8504 32.0083 50.0219C31.9764 50.1935 31.9178 50.5581 31.8327 51.1157C31.7688 51.5232 31.6837 52.188 31.5773 53.1102L31.3218 55.2333V55.2977ZM4.24649 54.3004C6.05577 54.5578 8.05662 55.0832 10.249 55.8767C12.484 56.7131 13.857 57.1313 14.3678 57.1313C15.6875 57.1313 16.7837 56.5844 17.6564 55.4907C17.7842 55.1047 17.848 54.665 17.848 54.1718C17.848 52.3917 16.7731 50.1506 14.6232 47.4484L13.41 45.7435C13.1545 45.3574 12.8246 44.8052 12.4202 44.0867C12.0158 43.3683 11.6805 42.7946 11.4144 42.3657C11.1484 41.9368 10.7599 41.5079 10.249 41.0789C9.73819 40.65 9.17412 40.3605 8.55683 40.2104C7.76926 40.3605 7.24244 40.6178 6.97637 40.9824C6.7103 41.347 6.55066 41.7384 6.49745 42.1566C6.44423 42.5748 6.32184 42.8482 6.13027 42.9769C5.95998 43.0627 5.66198 43.1485 5.23627 43.2343C5.12984 43.2343 4.96488 43.245 4.74138 43.2664C4.51788 43.2879 4.35292 43.2986 4.24649 43.2986C3.22478 43.2986 2.54364 43.3844 2.20307 43.556C1.73478 44.0921 1.50064 44.7033 1.50064 45.3896C1.50064 45.6898 1.57514 46.1992 1.72414 46.9176C1.87314 47.6361 1.94764 48.1883 1.94764 48.5743C1.94764 49.3678 1.70817 50.1506 1.22925 50.9227C0.750319 51.6947 0.510856 52.2952 0.510856 52.7242C0.681141 53.4533 1.92635 53.9787 4.24649 54.3004ZM9.16347 37.7021C9.16347 36.4154 10.0736 33.3642 10.7548 31.7021C11 30 10.8401 30.7721 11.5 30C11.4671 30.0381 11.6384 30.0643 11.5 30C11.5 30.5 11.5213 30.5214 11.5 30.5C10.9891 31.1005 11.8348 30.6079 11.0473 32.4415C10.2597 34.2752 9.8659 35.7817 9.8659 36.9613C9.8659 37.7977 10.0681 38.5268 10.4725 39.1488C10.877 39.7707 11.8561 40.6715 13.41 41.851L15.3576 43.1699C17.5287 44.9499 18.6143 46.2474 18.6143 47.0624C18.6143 47.427 18.3748 47.8237 17.8959 48.2526C17.417 48.6816 16.9647 48.896 16.539 48.896C16.4964 48.896 16.4751 48.9389 16.4751 49.0247C16.4751 49.0676 16.4857 49.1158 16.507 49.1695C16.5283 49.2231 16.5922 49.3464 16.6986 49.5394C16.805 49.7324 16.9221 49.9576 17.0498 50.215C17.8799 51.2658 19.4764 51.7912 21.8391 51.7912C25.9685 51.7912 29.172 50.097 31.4496 46.7085C31.4496 45.7435 31.4389 45.143 31.4176 44.9071C31.3963 44.6711 31.3857 44.446 31.3857 44.2315C31.3857 41.8081 31.9711 40.5964 33.1418 40.5964C33.5036 40.5964 33.8761 40.7251 34.2593 40.9824C34.4295 39.8672 34.5147 38.5912 34.5147 37.1543C34.5147 35.4386 34.387 33.9696 34.1315 32.7471C33.8761 31.5247 33.5675 30.5864 33.2056 29.9323C32.8438 29.2782 32.4766 28.6938 32.1041 28.1791C31.7316 27.6644 31.407 27.0961 31.1303 26.4741C30.8536 25.8522 30.6939 25.1338 30.6513 24.3188C30.1618 23.3537 29.7041 22.3779 29.2784 21.3914C28.8527 20.4049 28.4589 19.5578 28.0971 18.8501L26.4049 20.1047C24.6381 21.4129 23.1162 22.067 21.8391 22.067C20.5832 22.067 19.6679 21.7453 19.0932 21.1019L18.1034 20.1047C18.0183 20.6408 17.7735 21.3485 17.3691 22.2278L16.2835 24.4475C15.9855 25.1981 15.762 25.804 15.613 26.2651C15.464 26.7261 15.3895 27.0264 15.3895 27.1658C15.3895 27.3052 15.3842 27.4285 15.3736 27.5357C15.3629 27.643 15.3363 27.7609 15.2937 27.8896L13.857 30.6561C12.3244 33.6371 11.5581 36.1785 11.5581 38.2802C11.5581 38.559 11.6696 39.9105 11.7548 40.511C10.9246 39.932 9.16347 38.753 9.16347 37.7021ZM23.8506 54.9438C21.4666 54.9438 19.5722 55.2762 18.1673 55.9411V55.8767C17.3797 57.0134 16.2516 57.5817 14.7829 57.5817C13.8676 57.5817 12.4308 57.2386 10.4725 56.5523C8.51426 55.866 6.79012 55.3513 5.30013 55.0082C5.12984 54.9653 4.78395 54.9009 4.26245 54.8151C3.74095 54.7294 3.26735 54.6382 2.84163 54.5417C2.41592 54.4452 1.96892 54.3219 1.50064 54.1718C1.03235 54.0216 0.665177 53.8286 0.399106 53.5927C0.133035 53.3568 0 53.0887 0 52.7885C0 52.381 0.063857 52.0486 0.191571 51.7912C0.234142 51.7055 0.329928 51.5446 0.478927 51.3087C0.627927 51.0728 0.729034 50.9066 0.782248 50.8101C0.835462 50.7136 0.909962 50.5688 1.00575 50.3758C1.10153 50.1828 1.17071 50.0273 1.21328 49.9094C1.25585 49.7914 1.2931 49.6466 1.32503 49.4751C1.35696 49.3035 1.37292 49.1319 1.37292 48.9604C1.37292 48.8102 1.2931 48.2419 1.13346 47.2554C0.973819 46.2689 0.893997 45.6469 0.893997 45.3896C0.893997 44.5317 1.10153 43.8669 1.5166 43.3951C1.93167 42.9233 2.34142 42.6874 2.74585 42.6874H4.88506C5.09791 42.6874 5.38527 42.5802 5.74713 42.3657C5.87484 42.0655 5.97063 41.8081 6.03448 41.5936L6.22605 41.0789C6.24734 40.9931 6.28459 40.8966 6.3378 40.7894C6.39102 40.6822 6.48148 40.5535 6.6092 40.4034C6.4602 40.2104 6.3857 39.9637 6.3857 39.6635V39.1488C6.3857 38.677 6.71562 37.7119 7.37548 36.2536L8.10983 35.0633L8.71647 33.9374C8.95062 33.487 9.09962 33.1653 9.16347 32.9723L9.51469 32.1359C9.66369 31.7713 9.79672 31.3585 9.91379 30.8974C10.0309 30.4363 10.1639 29.8305 10.3129 29.0798C10.6109 27.8574 11.3346 26.5814 12.484 25.2517L13.9208 23.6111C14.8787 22.4101 15.5332 21.4236 15.8844 20.6515C16.2356 19.8795 16.4112 19.0645 16.4112 18.2067C16.4112 17.8636 16.3101 16.7484 16.1079 14.8611C15.9057 12.9738 15.8046 11.1188 15.8046 9.29584C15.8046 3.80564 18.4866 1.06055 23.8506 1.06055C24.404 1.06055 24.9734 1.1088 25.5587 1.20531C26.1441 1.30182 26.8412 1.527 27.6501 1.88086C28.4589 2.23472 29.1826 2.69581 29.8212 3.26413C30.4598 3.83245 31.0451 4.63668 31.5773 5.67682C32.1094 6.71695 32.4606 7.92329 32.6309 9.29584C32.7799 10.3253 32.9129 11.5584 33.03 12.9953C33.1471 14.4322 33.2535 15.4562 33.3493 16.0674C33.4451 16.6787 33.642 17.4722 33.94 18.448C34.238 19.4238 34.685 20.3781 35.281 21.311C35.877 22.2439 36.6858 23.3323 37.7075 24.5762C39.304 26.5921 40.5545 28.5919 41.4591 30.5757C42.3638 32.5595 42.8161 34.9132 42.8161 37.6368C42.8161 38.945 42.6245 40.1996 42.2414 41.4006C42.6245 41.4006 42.9172 41.54 43.1194 41.8188C43.3216 42.0976 43.4866 42.6552 43.6143 43.4916L43.8697 44.8749C43.9549 45.3038 44.2156 45.6952 44.652 46.0491C45.0883 46.4029 45.5407 46.6817 46.0089 46.8855C46.4772 47.0892 46.9029 47.368 47.2861 47.7219C47.6692 48.0757 47.8608 48.4671 47.8608 48.896C47.8608 49.518 47.6958 50.0059 47.3659 50.3597C47.036 50.7136 46.6209 50.9817 46.1207 51.1639C45.6205 51.3462 44.8861 51.7162 43.9176 52.2738C42.9491 52.8314 41.9966 53.5069 41.06 54.3004L39.2082 55.8767C38.3567 56.6273 37.6277 57.1689 37.0211 57.5013C36.4144 57.8337 35.728 57.9999 34.9617 57.9999L33.7165 57.7747C32.1839 57.4316 31.2048 56.6917 30.7791 55.555C27.8842 55.1476 25.5747 54.9438 23.8506 54.9438Z" fill="#ff5c00"/>
<path d="M40.0064 38.1894L39.9889 38.288L39.9936 38.2886L40.0064 38.1894ZM38.4419 37.9964L38.3474 37.9636L38.3057 38.084L38.4325 38.096L38.4419 37.9964ZM35.7599 27.1232L35.7849 27.0264L35.6599 26.9941V27.1232H35.7599ZM37.8033 38.1894L37.8359 38.284L37.8829 38.2678L37.8984 38.2205L37.8033 38.1894ZM35.6322 40.2161L35.5463 40.1649L35.5322 40.1886V40.2161H35.6322ZM20.9753 11.8572C20.9316 11.7362 20.8773 11.6049 20.8125 11.4635L20.6307 11.5468C20.6936 11.6842 20.7457 11.8103 20.7872 11.9251L20.9753 11.8572ZM20.8125 11.4635C20.742 11.3095 20.6409 11.1831 20.5093 11.0867L20.3911 11.248C20.4936 11.3232 20.5735 11.422 20.6307 11.5468L20.8125 11.4635ZM43.1354 41.056C43.2441 41.056 43.3442 41.0319 43.4176 40.9661C43.4932 40.8985 43.5228 40.8028 43.5228 40.6986H43.3228C43.3228 40.766 43.3045 40.799 43.2842 40.8171C43.2618 40.8372 43.2183 40.856 43.1354 40.856V41.056ZM43.5228 40.6986C43.5228 40.4396 43.4297 40.1492 43.255 39.8303L43.0796 39.9263C43.2456 40.2294 43.3228 40.4859 43.3228 40.6986H43.5228ZM43.255 39.8303C43.0724 39.4968 42.693 39.1532 42.1356 38.7968L42.0279 38.9653C42.5773 39.3166 42.9217 39.6379 43.0796 39.9263L43.255 39.8303ZM42.1356 38.7968C41.5669 38.4331 40.8601 38.1989 40.0192 38.0903L39.9936 38.2886C40.813 38.3944 41.4898 38.6213 42.0279 38.9653L42.1356 38.7968ZM40.0239 38.091C39.658 38.0259 39.1333 37.9613 38.4513 37.8969L38.4325 38.096C39.1128 38.1602 39.6311 38.2243 39.9889 38.2879L40.0239 38.091ZM38.5364 38.0292C39.156 36.2424 39.4678 34.6654 39.4678 33.2997H39.2678C39.2678 34.6362 38.9624 36.1903 38.3474 37.9636L38.5364 38.0292ZM39.4678 33.2997C39.4678 31.5056 39.0709 30.0616 38.2668 28.9777L38.1062 29.0969C38.8772 30.1362 39.2678 31.5338 39.2678 33.2997H39.4678ZM38.2668 28.9777C37.4726 27.9072 36.6464 27.249 35.7849 27.0264L35.7349 27.2201C36.5337 27.4264 37.3252 28.0442 38.1062 29.0969L38.2668 28.9777ZM35.6599 27.1232C35.6599 27.1187 35.6611 27.097 35.681 27.0769C35.701 27.0568 35.723 27.0554 35.728 27.0554V27.2554C35.7542 27.2554 35.7923 27.2487 35.8229 27.2178C35.8534 27.1871 35.8599 27.1492 35.8599 27.1232H35.6599ZM37.8084 29.8674C38.3781 31.1005 38.6612 32.2872 38.6612 33.4284H38.8612C38.8612 32.2534 38.5696 31.0382 37.9899 29.7835L37.8084 29.8674ZM38.6612 33.4284C38.6612 34.6355 38.3455 36.2109 37.7083 38.1583L37.8984 38.2205C38.5383 36.2647 38.8612 34.6662 38.8612 33.4284H38.6612ZM37.7708 38.0949C36.9313 38.3842 36.1915 39.0814 35.5463 40.1649L35.7181 40.2672C36.35 39.2062 37.0577 38.5522 37.8359 38.284L37.7708 38.0949ZM35.5322 40.2161C35.5322 40.3114 35.5494 40.401 35.5999 40.4688C35.6545 40.5421 35.7352 40.5734 35.8238 40.5734V40.3734C35.7846 40.3734 35.7696 40.3618 35.7603 40.3494C35.7469 40.3314 35.7322 40.2924 35.7322 40.2161H35.5322ZM35.8238 40.5734C35.8555 40.5734 35.881 40.5605 35.8937 40.5533C35.9092 40.5446 35.9244 40.5335 35.9387 40.5219C35.9674 40.4986 36.0013 40.466 36.0397 40.426C36.1168 40.3455 36.2199 40.2265 36.3481 40.0705L36.1935 39.9435C36.0663 40.0984 35.9671 40.2127 35.8953 40.2876C35.8591 40.3254 35.8318 40.3511 35.8126 40.3666C35.8029 40.3745 35.7975 40.378 35.7957 40.379C35.7912 40.3815 35.8027 40.3734 35.8238 40.3734V40.5734ZM36.3481 40.0705C36.5972 39.7672 36.9314 39.4562 37.3528 39.1378L37.2322 38.9782C36.8021 39.3032 36.4553 39.6249 36.1935 39.9435L36.3481 40.0705ZM37.3528 39.1378C37.7637 38.8273 38.1899 38.6755 38.6335 38.6755V38.4755C38.1405 38.4755 37.6727 38.6453 37.2322 38.9782L37.3528 39.1378ZM38.6335 38.6755C39.4792 38.6755 40.1936 38.7554 40.7786 38.9133L40.8307 38.7202C40.2237 38.5564 39.4906 38.4755 38.6335 38.4755V38.6755ZM40.7786 38.9133C41.3691 39.0726 41.7825 39.266 42.0314 39.4867L42.1641 39.337C41.8808 39.0859 41.4321 38.8825 40.8307 38.7202L40.7786 38.9133ZM42.0314 39.4867C42.2918 39.7176 42.4864 39.9456 42.6181 40.1702L42.7906 40.069C42.6456 39.8217 42.4358 39.5779 42.1641 39.337L42.0314 39.4867ZM42.6181 40.1702C42.7548 40.4032 42.8467 40.5947 42.8968 40.7461L43.0867 40.6833C43.0303 40.513 42.9307 40.3077 42.7906 40.069L42.6181 40.1702ZM42.8968 40.7461C42.9242 40.8288 42.9521 40.8973 42.9816 40.9468C42.9963 40.9715 43.0141 40.9961 43.036 41.0156C43.058 41.0351 43.0917 41.056 43.1354 41.056V40.856C43.1463 40.856 43.155 40.8586 43.1608 40.8613C43.1636 40.8626 43.1657 40.8638 43.1669 40.8647C43.1682 40.8655 43.1689 40.8661 43.1689 40.8662C43.1689 40.8662 43.1674 40.8647 43.1644 40.8609C43.1615 40.8572 43.1579 40.8518 43.1535 40.8445C43.1351 40.8136 43.1125 40.7614 43.0867 40.6833L42.8968 40.7461ZM18.6143 15.0219L18.7239 15.1893L19.0058 15.0046L18.7087 14.8456L18.6143 15.0219ZM20.2746 13.9282H20.0746V14.2529L20.3646 14.1068L20.2746 13.9282ZM20.53 13.7673L20.5631 13.5701L20.5467 13.5673H20.53V13.7673ZM17.9757 15.4401L17.8144 15.5583L17.9265 15.7114L18.0853 15.6075L17.9757 15.4401ZM24.7765 14.3142L24.6346 14.4551L24.9505 14.2156L24.7765 14.3142ZM24.5211 13.3813H24.3211V13.3992L24.3243 13.4168L24.5211 13.3813ZM26.5326 15.0219L26.4825 14.8283L25.9677 14.9613L26.4426 15.2006L26.5326 15.0219ZM27.9055 15.5688L27.8262 15.7524L28.0318 15.8412L28.0969 15.627L27.9055 15.5688ZM24.1699 14.0569L23.9919 14.1481L24.0476 14.2569H24.1699V14.0569ZM26.9796 17.2738L27.0964 17.4361L27.2866 17.2992L27.1215 17.1329L26.9796 17.2738ZM17.5287 18.2067L17.6653 18.0605L17.3428 18.2805L17.5287 18.2067ZM18.1034 19.1718L17.9614 19.3127L17.9657 19.3168L18.1034 19.1718ZM19.2209 20.2333L19.367 20.0962L19.3587 20.0883L19.2209 20.2333ZM26.4049 19.4613L26.5221 19.6234L26.5269 19.6197L26.4049 19.4613ZM28.0332 18.2067L27.9248 18.0386L27.9178 18.0431L27.9111 18.0483L28.0332 18.2067ZM28.7676 16.4696L28.9467 16.3806L28.9323 16.3516L28.9095 16.3287L28.7676 16.4696ZM26.7241 16.8234L26.8141 16.6448L26.7042 16.5894L26.6052 16.6626L26.7241 16.8234ZM31.3218 55.2977H31.1218V55.3503L31.1477 55.3961L31.3218 55.2977ZM37.9949 56.1341L37.8654 55.9817L37.8589 55.9872L37.8529 55.9932L37.9949 56.1341ZM41.2516 53.3675L41.1265 53.2114L41.1221 53.2151L41.2516 53.3675ZM47.2542 49.089L47.4529 49.1118L47.4567 49.0778L47.4491 49.0444L47.2542 49.089ZM43.0715 44.2315L42.8739 44.2651L42.8771 44.2786L43.0715 44.2315ZM42.8799 43.1056L43.0771 43.072L43.0759 43.0647L43.0741 43.0574L42.8799 43.1056ZM42.5607 42.044L42.7466 41.9702L42.7314 41.9322L42.7026 41.9031L42.5607 42.044ZM35.0894 43.749L35.2676 43.6582L35.2599 43.6431L35.2498 43.6295L35.0894 43.749ZM34.387 41.7223L34.5844 41.6904L34.5727 41.6181L34.5171 41.5704L34.387 41.7223ZM31.9604 46.998H31.7604V47.0104L31.7619 47.0227L31.9604 46.998ZM31.8327 51.1157L32.0303 51.1467L32.0304 51.1459L31.8327 51.1157ZM31.5773 53.1102L31.7758 53.1341L31.7759 53.1331L31.5773 53.1102ZM31.3218 55.2333L31.1233 55.2095L31.1218 55.2214V55.2333H31.3218ZM4.24649 54.3004L4.27465 54.1024L4.27396 54.1023L4.24649 54.3004ZM10.249 55.8767L10.3191 55.6894L10.3171 55.6887L10.249 55.8767ZM17.6564 55.4907L17.8128 55.6154L17.8351 55.5875L17.8463 55.5535L17.6564 55.4907ZM14.6232 47.4484L14.4601 47.5645L14.4667 47.5729L14.6232 47.4484ZM13.41 45.7435L13.2431 45.8539L13.247 45.8594L13.41 45.7435ZM8.55683 40.2104L8.60409 40.016L8.56197 40.0058L8.51938 40.0139L8.55683 40.2104ZM6.13027 42.9769L6.22025 43.1555L6.23141 43.1499L6.24179 43.1429L6.13027 42.9769ZM5.23627 43.2343V43.4343H5.25622L5.27578 43.4303L5.23627 43.2343ZM2.20307 43.556L2.11308 43.3773L2.07816 43.3949L2.05243 43.4244L2.20307 43.556ZM0.510856 52.7242H0.310856V52.7472L0.316096 52.7696L0.510856 52.7242ZM10.7548 31.7021L10.9398 31.778L10.9492 31.7551L10.9527 31.7307L10.7548 31.7021ZM11.5 30L11.5843 29.8186L11.4475 29.755L11.3488 29.8691L11.5 30ZM11.5 30.5L11.642 30.3591L11.4887 30.2047L11.3477 30.3704L11.5 30.5ZM13.41 41.851L13.2889 42.0105L13.2978 42.0166L13.41 41.851ZM15.3576 43.1699L15.4844 43.0153L15.4773 43.0095L15.4697 43.0043L15.3576 43.1699ZM17.0498 50.215L16.8707 50.3039L16.8799 50.3226L16.8929 50.3389L17.0498 50.215ZM31.4496 46.7085L31.6155 46.8201L31.6496 46.7695V46.7085H31.4496ZM34.2593 40.9824L34.1477 41.1484L34.4094 41.3242L34.457 41.0126L34.2593 40.9824ZM30.6513 24.3188L30.8511 24.3084L30.8489 24.2661L30.8297 24.2283L30.6513 24.3188ZM28.0971 18.8501L28.2751 18.759L28.1676 18.5488L27.9779 18.6894L28.0971 18.8501ZM26.4049 20.1047L26.5239 20.2654L26.524 20.2653L26.4049 20.1047ZM19.0932 21.1019L19.2426 20.9685L19.2352 20.961L19.0932 21.1019ZM18.1034 20.1047L18.2454 19.9638L17.9677 19.684L17.9059 20.0733L18.1034 20.1047ZM17.3691 22.2278L17.5488 22.3157L17.5508 22.3114L17.3691 22.2278ZM16.2835 24.4475L16.1039 24.3596L16.1005 24.3665L16.0976 24.3737L16.2835 24.4475ZM15.2937 27.8896L15.4712 27.9818L15.4786 27.9676L15.4836 27.9524L15.2937 27.8896ZM13.857 30.6561L13.6795 30.564L13.6791 30.5647L13.857 30.6561ZM11.7548 40.511L11.6403 40.675L12.0173 40.938L11.9528 40.4829L11.7548 40.511ZM18.1673 55.9411H17.9673V56.257L18.2529 56.1218L18.1673 55.9411ZM18.1673 55.8767H18.3673V55.2369L18.0029 55.7628L18.1673 55.8767ZM5.30013 55.0082L5.25127 55.2021L5.25524 55.2031L5.30013 55.0082ZM5.74713 42.3657L5.8491 42.5378L5.9055 42.5043L5.93117 42.444L5.74713 42.3657ZM6.03448 41.5936L5.84662 41.5237L5.8428 41.5366L6.03448 41.5936ZM6.22605 41.0789L6.41349 41.1487L6.41744 41.1381L6.42017 41.1271L6.22605 41.0789ZM6.6092 40.4034L6.76153 40.533L6.86658 40.4095L6.76751 40.2812L6.6092 40.4034ZM7.37548 36.2536L7.20527 36.1485L7.19854 36.1594L7.19326 36.1711L7.37548 36.2536ZM8.10983 35.0633L8.28034 35.1685L8.2859 35.1582L8.10983 35.0633ZM8.71647 33.9374L8.89256 34.0323L8.89393 34.0296L8.71647 33.9374ZM9.16347 32.9723L8.97907 32.8949L8.97605 32.9021L8.9736 32.9095L9.16347 32.9723ZM9.51469 32.1359L9.6991 32.2134L9.69982 32.2116L9.51469 32.1359ZM10.3129 29.0798L10.1184 29.0324L10.1167 29.0409L10.3129 29.0798ZM12.484 25.2517L12.3336 25.12L12.3327 25.1209L12.484 25.2517ZM13.9208 23.6111L14.0714 23.743L14.0772 23.7358L13.9208 23.6111ZM32.6309 9.29584L32.4324 9.32047L32.433 9.32449L32.6309 9.29584ZM37.7075 24.5762L37.8643 24.452L37.8621 24.4492L37.7075 24.5762ZM42.2414 41.4006L42.0508 41.3398L41.9676 41.6006H42.2414V41.4006ZM43.6143 43.4916L43.4165 43.5218L43.4176 43.5279L43.6143 43.4916ZM43.8697 44.8749L43.673 44.9112L43.6736 44.9138L43.8697 44.8749ZM41.06 54.3004L40.9307 54.1478L40.9304 54.1481L41.06 54.3004ZM39.2082 55.8767L39.0785 55.7244L39.0759 55.7267L39.2082 55.8767ZM34.9617 57.9999L34.9261 58.1967L34.9437 58.1999H34.9617V57.9999ZM33.7165 57.7747L33.6727 57.97L33.6809 57.9715L33.7165 57.7747ZM30.7791 55.555L30.9663 55.4849L30.9247 55.3736L30.8069 55.357L30.7791 55.555ZM18.7087 14.8456C18.3983 14.6795 18.1724 14.4614 18.0227 14.1927C17.8724 13.9229 17.7926 13.5908 17.7926 13.1883H17.3926C17.3926 13.6437 17.4831 14.046 17.6733 14.3874C17.8642 14.73 18.1492 14.9998 18.5199 15.1983L18.7087 14.8456ZM17.7926 13.1883C17.7926 12.683 17.9076 12.2736 18.1258 11.9487L17.7937 11.7257C17.5223 12.1299 17.3926 12.6213 17.3926 13.1883H17.7926ZM18.1258 11.9487C18.3398 11.63 18.5957 11.4903 18.9017 11.4903V11.0903C18.4413 11.0903 18.0693 11.3152 17.7937 11.7257L18.1258 11.9487ZM18.9017 11.4903C19.2178 11.4903 19.5022 11.6561 19.7541 12.0563L20.0926 11.8433C19.7911 11.3642 19.3944 11.0903 18.9017 11.0903V11.4903ZM19.7541 12.0563C20.0078 12.4593 20.1384 12.9412 20.1384 13.51H20.5384C20.5384 12.8778 20.3924 12.3195 20.0926 11.8433L19.7541 12.0563ZM20.1384 13.51C20.1384 13.5291 20.1323 13.5802 20.1112 13.676L20.5018 13.7622C20.5233 13.665 20.5384 13.5766 20.5384 13.51H20.1384ZM20.1112 13.676C20.0898 13.7732 20.0746 13.8616 20.0746 13.9282H20.4746C20.4746 13.909 20.4807 13.858 20.5018 13.7622L20.1112 13.676ZM20.3646 14.1068C20.4129 14.0825 20.4576 14.0569 20.4979 14.0299L20.2748 13.6978C20.2512 13.7137 20.2214 13.731 20.1846 13.7496L20.3646 14.1068ZM20.4979 14.0299C20.5379 14.003 20.5754 13.9733 20.6081 13.9404L20.3242 13.6586C20.3143 13.6686 20.2986 13.6819 20.2748 13.6978L20.4979 14.0299ZM20.6081 13.9404C20.6078 13.9407 20.581 13.9673 20.53 13.9673V13.5673C20.4364 13.5673 20.3671 13.6154 20.3242 13.6586L20.6081 13.9404ZM20.4969 13.9646C20.5728 13.9773 20.643 13.9552 20.6967 13.9139C20.7443 13.8774 20.774 13.8302 20.793 13.7919C20.8309 13.7156 20.8545 13.6159 20.8713 13.5088C20.9057 13.289 20.9216 12.9652 20.9216 12.5449H20.5216C20.5216 12.961 20.5055 13.2592 20.4761 13.4469C20.461 13.5434 20.4447 13.5939 20.4347 13.6141C20.4297 13.624 20.4335 13.6117 20.4531 13.5966C20.4789 13.5769 20.5192 13.5627 20.5631 13.5701L20.4969 13.9646ZM20.9216 12.5449C20.9216 11.9678 20.7495 11.3821 20.417 10.7903L20.0683 10.9862C20.3744 11.531 20.5216 12.0498 20.5216 12.5449H20.9216ZM20.417 10.7903C20.0604 10.1555 19.4914 9.83573 18.742 9.83573V10.2357C19.3549 10.2357 19.7863 10.4843 20.0683 10.9862L20.417 10.7903ZM18.742 9.83573C18.4073 9.83573 18.1066 9.92377 17.8486 10.1054C17.5923 10.2859 17.39 10.5503 17.2354 10.8847L17.5985 11.0525C17.7314 10.7651 17.8936 10.563 18.0789 10.4325C18.2626 10.3032 18.4808 10.2357 18.742 10.2357V9.83573ZM17.2354 10.8847C16.9338 11.5375 16.7859 12.2855 16.7859 13.124H17.186C17.186 12.3326 17.3254 11.6437 17.5985 11.0525L17.2354 10.8847ZM16.7859 13.124C16.7859 13.8311 17.1459 14.6458 17.8144 15.5583L18.1371 15.3219C17.4859 14.433 17.186 13.7036 17.186 13.124H16.7859ZM18.0853 15.6075L18.7239 15.1893L18.5047 14.8546L17.8662 15.2728L18.0853 15.6075ZM24.9505 14.2156C24.8846 14.0994 24.8038 13.8217 24.7179 13.3458L24.3243 13.4168C24.4087 13.8846 24.4981 14.2288 24.6025 14.4129L24.9505 14.2156ZM24.7211 13.3813C24.7211 12.6749 24.8661 12.1746 25.1247 11.849L24.8114 11.6002C24.474 12.0252 24.3211 12.6294 24.3211 13.3813H24.7211ZM25.1247 11.849C25.3879 11.5175 25.7045 11.3616 26.0856 11.3616V10.9616C25.5727 10.9616 25.1442 11.1811 24.8114 11.6002L25.1247 11.849ZM26.0856 11.3616C26.4971 11.3616 26.8441 11.5542 27.1332 11.9815L27.4645 11.7573C27.115 11.2409 26.6532 10.9616 26.0856 10.9616V11.3616ZM27.1332 11.9815C27.4337 12.4255 27.5778 12.8696 27.5778 13.317H27.9778C27.9778 12.7778 27.8026 12.2569 27.4645 11.7573L27.1332 11.9815ZM27.5778 13.317C27.5778 13.7488 27.4807 14.0762 27.305 14.3169C27.1303 14.556 26.8629 14.73 26.4825 14.8283L26.5826 15.2156C27.0323 15.0994 27.3876 14.882 27.628 14.5528C27.8673 14.2252 27.9778 13.8074 27.9778 13.317H27.5778ZM26.4426 15.2006C26.6231 15.2915 26.8291 15.3754 27.0596 15.4528L27.1869 15.0736C26.9704 15.0009 26.7826 14.924 26.6225 14.8433L26.4426 15.2006ZM27.0596 15.4528C27.2762 15.5256 27.5316 15.6252 27.8262 15.7524L27.9848 15.3852C27.6834 15.2551 27.4172 15.151 27.1869 15.0736L27.0596 15.4528ZM28.0969 15.627C28.4198 14.5639 28.5844 13.6214 28.5844 12.8023H28.1844C28.1844 13.5701 28.0297 14.472 27.7141 15.5107L28.0969 15.627ZM28.5844 12.8023C28.5844 11.704 28.3396 10.839 27.8165 10.2417L27.5156 10.5053C27.9503 11.0017 28.1844 11.756 28.1844 12.8023H28.5844ZM27.8165 10.2417C27.3039 9.65645 26.6816 9.35319 25.9579 9.35319V9.75319C26.5538 9.75319 27.0703 9.99681 27.5156 10.5053L27.8165 10.2417ZM25.9579 9.35319C25.2131 9.35319 24.5994 9.57642 24.1397 10.0396L24.4236 10.3214C24.794 9.94817 25.2977 9.75319 25.9579 9.75319V9.35319ZM24.1397 10.0396C23.6852 10.4975 23.459 11.0692 23.459 11.7407H23.859C23.859 11.1683 24.0479 10.6999 24.4236 10.3214L24.1397 10.0396ZM23.459 11.7407C23.459 12.6461 23.6345 13.4504 23.9919 14.1481L24.3479 13.9657C24.0241 13.3337 23.859 12.5939 23.859 11.7407H23.459ZM24.1699 14.2569C24.1558 14.2569 24.1517 14.2545 24.1649 14.2578C24.1755 14.2605 24.1919 14.2654 24.2151 14.2736C24.2615 14.29 24.3254 14.3159 24.4085 14.3525L24.5698 13.9865C24.4826 13.948 24.4082 13.9176 24.3481 13.8964C24.2977 13.8786 24.23 13.8569 24.1699 13.8569V14.2569ZM24.4085 14.3525C24.4924 14.3895 24.5553 14.4187 24.5987 14.4406C24.6206 14.4516 24.6353 14.4596 24.6443 14.465C24.6579 14.4731 24.6485 14.4692 24.6346 14.4551L24.9185 14.1733C24.8938 14.1485 24.8645 14.1306 24.8489 14.1213C24.8286 14.1092 24.8047 14.0965 24.7787 14.0833C24.7263 14.0569 24.6562 14.0245 24.5698 13.9865L24.4085 14.3525ZM26.8627 17.1115C24.4838 18.8235 22.6126 19.6473 21.2324 19.6473V20.0473C22.7471 20.0473 24.7073 19.1555 27.0964 17.4361L26.8627 17.1115ZM21.2324 19.6473C19.9959 19.6473 18.808 19.1282 17.6653 18.0605L17.3922 18.3528C18.5909 19.4727 19.8721 20.0473 21.2324 20.0473V19.6473ZM17.3428 18.2805C17.5184 18.7226 17.7223 19.0716 17.9615 19.3127L18.2454 19.0309C18.0589 18.843 17.8797 18.5486 17.7146 18.1329L17.3428 18.2805ZM17.9657 19.3168L19.0832 20.3783L19.3587 20.0883L18.2412 19.0268L17.9657 19.3168ZM19.0751 20.3702C19.8542 21.2001 20.7782 21.6236 21.8391 21.6236V21.2236C20.8991 21.2236 20.0776 20.8536 19.3668 20.0964L19.0751 20.3702ZM21.8391 21.6236C23.138 21.6236 24.7028 20.9388 26.522 19.6234L26.2877 19.2992C24.4884 20.6002 23.0093 21.2236 21.8391 21.2236V21.6236ZM26.5269 19.6197L28.1553 18.3651L27.9111 18.0483L26.2828 19.3029L26.5269 19.6197ZM28.1416 18.3748C28.7188 18.0026 29.0314 17.505 29.0314 16.8878H28.6314C28.6314 17.3428 28.4119 17.7245 27.9248 18.0386L28.1416 18.3748ZM29.0314 16.8878C29.0314 16.6891 29.011 16.5101 28.9467 16.3806L28.5884 16.5585C28.6093 16.6005 28.6314 16.7004 28.6314 16.8878H29.0314ZM28.9095 16.3287C28.8221 16.2406 28.6886 16.1471 28.5226 16.0483C28.3535 15.9478 28.139 15.8351 27.8807 15.7104C27.3639 15.4609 26.662 15.1587 25.7768 14.8041L25.6281 15.1754C26.5096 15.5286 27.2019 15.8269 27.7068 16.0706C27.9593 16.1925 28.1626 16.2997 28.3181 16.3921C28.4766 16.4864 28.5747 16.5592 28.6256 16.6104L28.9095 16.3287ZM25.7768 14.8041C24.89 14.4489 24.1356 14.1809 23.515 14.0015C22.8978 13.823 22.3998 13.7282 22.0307 13.7282V14.1282C22.3426 14.1282 22.7972 14.2103 23.4039 14.3857C24.0072 14.5601 24.7482 14.823 25.6281 15.1754L25.7768 14.8041ZM22.0307 13.7282C21.3336 13.7282 20.3452 14.1194 19.0886 14.849L19.2894 15.1949C20.5445 14.4662 21.4506 14.1282 22.0307 14.1282V13.7282ZM19.0886 14.849C18.4502 15.2197 17.9586 15.5974 17.6246 15.9852C17.2895 16.3743 17.1052 16.7834 17.1052 17.2094H17.5052C17.5052 16.9063 17.6349 16.5863 17.9277 16.2462C18.2217 15.9048 18.672 15.5534 19.2894 15.1949L19.0886 14.849ZM17.1052 17.2094C17.1052 17.3414 17.1639 17.4718 17.2409 17.5913C17.3206 17.7147 17.4348 17.8491 17.5784 17.9937L17.8623 17.7119C17.7291 17.5777 17.6358 17.4655 17.5771 17.3745C17.5158 17.2795 17.5052 17.2276 17.5052 17.2094H17.1052ZM17.5784 17.9937C18.6305 19.0538 19.8076 19.5969 21.1047 19.5969V19.1969C19.9327 19.1969 18.8535 18.7107 17.8623 17.7119L17.5784 17.9937ZM21.1047 19.5969C22.5996 19.5969 24.5177 18.7037 26.8431 16.9842L26.6052 16.6626C24.2903 18.3745 22.4622 19.1969 21.1047 19.1969V19.5969ZM26.6342 17.002C26.6184 16.9941 26.6107 16.9859 26.6099 16.9851C26.609 16.9841 26.6117 16.9868 26.6173 16.996C26.6289 17.015 26.6449 17.0481 26.6637 17.1004L27.04 16.9646C27.0163 16.8989 26.9897 16.8383 26.9587 16.7875C26.9302 16.7409 26.8848 16.6804 26.8141 16.6448L26.6342 17.002ZM26.6637 17.1004C26.7078 17.2225 26.7623 17.3388 26.8376 17.4147L27.1215 17.1329C27.1117 17.123 27.081 17.0784 27.04 16.9646L26.6637 17.1004ZM31.1477 55.3961C31.9694 56.8505 33.2053 57.5887 34.834 57.5887V57.1887C33.3549 57.1887 32.2494 56.5329 31.496 55.1993L31.1477 55.3961ZM34.834 57.5887C35.1237 57.5887 35.4083 57.5606 35.6877 57.5043L35.6086 57.1122C35.3558 57.1631 35.0977 57.1887 34.834 57.1887V57.5887ZM35.6877 57.5043C35.9596 57.4495 36.1929 57.3883 36.3857 57.3198L36.2516 56.9429C36.0825 57.003 35.8689 57.0598 35.6086 57.1122L35.6877 57.5043ZM36.3857 57.3198C36.576 57.2521 36.7807 57.1627 36.9993 57.0526L36.8193 56.6954C36.6122 56.7997 36.4231 56.8819 36.2516 56.9429L36.3857 57.3198ZM36.9993 57.0526C37.2135 56.9447 37.3771 56.8543 37.4838 56.7826L37.2608 56.4506C37.1759 56.5076 37.0308 56.5888 36.8193 56.6954L36.9993 57.0526ZM37.4838 56.7826C37.5858 56.7141 37.7128 56.6194 37.8636 56.5L37.6153 56.1864C37.4682 56.3029 37.3504 56.3904 37.2608 56.4506L37.4838 56.7826ZM37.8636 56.5C38.0065 56.3869 38.1047 56.3073 38.1368 56.275L37.8529 55.9932C37.8538 55.9923 37.85 55.9961 37.8369 56.0073C37.8251 56.0174 37.8091 56.0307 37.7884 56.0477C37.747 56.0815 37.6895 56.1277 37.6153 56.1864L37.8636 56.5ZM38.1244 56.2865L41.3811 53.52L41.1221 53.2151L37.8654 55.9817L38.1244 56.2865ZM41.3767 53.5236C42.3016 52.7824 43.2781 52.1688 44.3064 51.6825L44.1354 51.3209C43.0778 51.8211 42.0748 52.4515 41.1265 53.2115L41.3767 53.5236ZM44.3064 51.6825C45.3503 51.1889 46.1087 50.7991 46.576 50.5144L46.3678 50.1728C45.9198 50.4458 45.1776 50.8281 44.1354 51.3209L44.3064 51.6825ZM46.576 50.5144C47.0891 50.2018 47.3824 49.7273 47.4529 49.1118L47.0555 49.0663C46.9982 49.5659 46.77 49.9279 46.3678 50.1728L46.576 50.5144ZM47.4491 49.0444C47.313 48.4503 47.0365 47.9781 46.6112 47.6449L46.3645 47.9597C46.7055 48.2269 46.9398 48.6126 47.0592 49.1337L47.4491 49.0444ZM46.6112 47.6449C46.2111 47.3313 45.7949 47.1091 45.3625 46.983L45.2505 47.367C45.627 47.4768 45.9983 47.6728 46.3645 47.9597L46.6112 47.6449ZM45.3625 46.983C45.008 46.8796 44.6176 46.6089 44.1937 46.1401L43.897 46.4084C44.3457 46.9046 44.7962 47.2345 45.2505 47.367L45.3625 46.983ZM44.1937 46.1401C43.7867 45.6901 43.4738 45.0433 43.2659 44.1844L42.8771 44.2786C43.0949 45.1783 43.4312 45.8933 43.897 46.4084L44.1937 46.1401ZM43.2687 44.198L43.0771 43.072L42.6828 43.1391L42.8744 44.265L43.2687 44.198ZM43.0741 43.0574C43.0517 42.9673 43.0027 42.792 42.9284 42.5353L42.5442 42.6465C42.6188 42.9045 42.6656 43.0723 42.6858 43.1537L43.0741 43.0574ZM42.9284 42.5353C42.8538 42.2776 42.793 42.0872 42.7466 41.9702L42.3748 42.1178C42.4135 42.2153 42.4697 42.3894 42.5442 42.6465L42.9284 42.5353ZM42.7026 41.9031C42.6094 41.8092 42.4854 41.7797 42.3691 41.7797V42.1797C42.3955 42.1797 42.4104 42.1831 42.4172 42.1853C42.423 42.1873 42.4218 42.188 42.4187 42.1849L42.7026 41.9031ZM42.3691 41.7797C42.0536 41.7797 41.7225 41.9833 41.3858 42.3006L41.6602 42.5917C41.9834 42.287 42.2163 42.1797 42.3691 42.1797V41.7797ZM41.3858 42.3006C41.0501 42.617 40.7152 42.9708 40.3812 43.3617L40.6852 43.6216C41.011 43.2404 41.336 42.8972 41.6602 42.5917L41.3858 42.3006ZM40.3812 43.3617C40.0672 43.729 39.6639 44.0644 39.168 44.3663L39.376 44.7079C39.9018 44.3879 40.3394 44.0262 40.6852 43.6216L40.3812 43.3617ZM39.168 44.3663C38.6845 44.6606 38.1986 44.8036 37.7075 44.8036V45.2036C38.2808 45.2036 38.8378 45.0356 39.376 44.7079L39.168 44.3663ZM37.7075 44.8036C36.4282 44.8036 35.6458 44.4013 35.2676 43.6582L34.9112 43.8397C35.3844 44.7694 36.3475 45.2036 37.7075 45.2036V44.8036ZM35.2498 43.6295C34.9591 43.239 34.7316 42.6013 34.5844 41.6904L34.1895 41.7542C34.3404 42.6877 34.5811 43.4011 34.929 43.8684L35.2498 43.6295ZM34.5171 41.5704C34.2984 41.3831 34.098 41.2371 33.917 41.1371C33.7386 41.0385 33.5627 40.9754 33.3972 40.9754V41.3754C33.4658 41.3754 33.572 41.4035 33.7235 41.4872C33.8724 41.5695 34.0499 41.6969 34.2569 41.8742L34.5171 41.5704ZM33.3972 40.9754C33.121 40.9754 32.8708 41.048 32.6546 41.1981C32.4399 41.3471 32.2701 41.5644 32.1393 41.8368C31.8803 42.3762 31.7604 43.1603 31.7604 44.1672H32.1604C32.1604 43.1796 32.28 42.4678 32.4999 42.01C32.6085 41.7837 32.7381 41.6271 32.8826 41.5267C33.0256 41.4275 33.1944 41.3754 33.3972 41.3754V40.9754ZM31.7604 44.1672V44.7462H32.1604V44.1672H31.7604ZM31.7604 44.7462V46.998H32.1604V44.7462H31.7604ZM31.7619 47.0227C31.8467 47.7056 31.8881 48.2431 31.8881 48.6387H32.2881C32.2881 48.2192 32.2444 47.6631 32.1589 46.9734L31.7619 47.0227ZM31.8881 48.6387C31.8881 48.9803 31.8828 49.2498 31.8724 49.4486L32.2719 49.4694C32.2828 49.2607 32.2881 48.9833 32.2881 48.6387H31.8881ZM31.8724 49.4486C31.8622 49.6449 31.8418 49.8237 31.8117 49.9854L32.2049 50.0585C32.2387 49.877 32.2609 49.6805 32.2719 49.4694L31.8724 49.4486ZM31.8117 49.9854C31.779 50.1607 31.72 50.5286 31.635 51.0855L32.0304 51.1459C32.1157 50.5876 32.1737 50.2263 32.2049 50.0585L31.8117 49.9854ZM31.6351 51.0847C31.5706 51.4965 31.485 52.1648 31.3786 53.0872L31.7759 53.1331C31.8824 52.2111 31.9671 51.5498 32.0303 51.1467L31.6351 51.0847ZM31.3787 53.0863L31.1233 55.2095L31.5204 55.2572L31.7758 53.1341L31.3787 53.0863ZM31.1218 55.2333V55.2977H31.5218V55.2333H31.1218ZM4.21832 54.4984C6.01087 54.7534 7.99813 55.2747 10.181 56.0648L10.3171 55.6887C8.11511 54.8917 6.10066 54.3622 4.27465 54.1024L4.21832 54.4984ZM10.1789 56.064C11.2982 56.4829 12.2045 56.7982 12.8967 57.009C13.5795 57.217 14.0781 57.3313 14.3678 57.3313V56.9313C14.1466 56.9313 13.7033 56.8366 13.0133 56.6264C12.3325 56.419 11.4349 56.107 10.3191 55.6894L10.1789 56.064ZM14.3678 57.3313C15.7525 57.3313 16.9048 56.7534 17.8128 55.6154L17.5001 55.366C16.6627 56.4155 15.6226 56.9313 14.3678 56.9313V57.3313ZM17.8463 55.5535C17.982 55.1434 18.048 54.682 18.048 54.1718H17.648C17.648 54.6481 17.5863 55.0659 17.4666 55.4279L17.8463 55.5535ZM18.048 54.1718C18.048 52.3202 16.9351 50.0331 14.7798 47.3239L14.4667 47.5729C16.6111 50.2682 17.648 52.4633 17.648 54.1718H18.048ZM14.7862 47.3325L13.5729 45.6275L13.247 45.8594L14.4603 47.5644L14.7862 47.3325ZM13.5768 45.6331C13.3252 45.253 12.998 44.7056 12.5945 43.9886L12.2459 44.1848C12.6512 44.9048 12.9838 45.4619 13.2432 45.8538L13.5768 45.6331ZM12.5945 43.9886C12.1894 43.2691 11.8526 42.6926 11.5844 42.2603L11.2445 42.4711C11.5084 42.8966 11.8421 43.4675 12.2459 44.1848L12.5945 43.9886ZM11.5844 42.2603C11.3042 41.8086 10.8998 41.3642 10.3776 40.9258L10.1204 41.2321C10.62 41.6515 10.9925 42.0649 11.2445 42.4711L11.5844 42.2603ZM10.3776 40.9258C9.84442 40.4781 9.2528 40.1738 8.60409 40.016L8.50957 40.4047C9.09543 40.5472 9.63195 40.822 10.1204 41.2321L10.3776 40.9258ZM8.51938 40.0139C7.71719 40.1668 7.12676 40.4371 6.81482 40.8645L7.13793 41.1003C7.35813 40.7986 7.82134 40.5542 8.59428 40.4068L8.51938 40.0139ZM6.81482 40.8645C6.53029 41.2544 6.35682 41.6773 6.29905 42.1314L6.69585 42.1818C6.7445 41.7995 6.89031 41.4396 7.13793 41.1003L6.81482 40.8645ZM6.29905 42.1314C6.24754 42.5361 6.13504 42.7328 6.01875 42.8109L6.24179 43.1429C6.50864 42.9637 6.64092 42.6135 6.69585 42.1818L6.29905 42.1314ZM6.04029 42.7983C5.89612 42.8709 5.62147 42.9526 5.19676 43.0382L5.27578 43.4303C5.70249 43.3443 6.02385 43.2545 6.22025 43.1555L6.04029 42.7983ZM5.23627 43.0343C5.11972 43.0343 4.94678 43.0458 4.72228 43.0673L4.76048 43.4655C4.98298 43.4442 5.13997 43.4343 5.23627 43.4343V43.0343ZM4.72228 43.0673C4.49978 43.0887 4.34279 43.0986 4.24649 43.0986V43.4986C4.36304 43.4986 4.53598 43.4871 4.76048 43.4655L4.72228 43.0673ZM4.24649 43.0986C3.73089 43.0986 3.29616 43.1202 2.94436 43.1645C2.59625 43.2083 2.31394 43.2762 2.11308 43.3773L2.29305 43.7346C2.43277 43.6642 2.66131 43.6033 2.99434 43.5614C3.32368 43.5199 3.74038 43.4986 4.24649 43.4986V43.0986ZM2.05243 43.4244C1.55362 43.9955 1.30064 44.653 1.30064 45.3896H1.70064C1.70064 44.7536 1.91594 44.1887 2.3537 43.6875L2.05243 43.4244ZM1.30064 45.3896C1.30064 45.7126 1.37936 46.2401 1.52831 46.9582L1.91997 46.877C1.77091 46.1583 1.70064 45.6671 1.70064 45.3896H1.30064ZM1.52831 46.9582C1.67654 47.673 1.74764 48.2092 1.74764 48.5743H2.14764C2.14764 48.1674 2.06974 47.5992 1.91997 46.877L1.52831 46.9582ZM1.74764 48.5743C1.74764 49.3254 1.52149 50.0722 1.05929 50.8173L1.3992 51.0281C1.89486 50.2291 2.14764 49.4103 2.14764 48.5743H1.74764ZM1.05929 50.8173C0.578242 51.5927 0.310856 52.2348 0.310856 52.7242H0.710856C0.710856 52.3556 0.922396 51.7967 1.3992 51.0281L1.05929 50.8173ZM0.316096 52.7696C0.424229 53.2327 0.858723 53.581 1.49472 53.8494C2.14098 54.1221 3.05231 54.3368 4.21902 54.4985L4.27396 54.1023C3.12053 53.9424 2.24919 53.7336 1.65023 53.4808C1.04102 53.2238 0.767768 52.9448 0.705615 52.6787L0.316096 52.7696ZM9.36347 37.7021C9.36347 37.0889 9.58359 36.0283 9.89646 34.8962C10.2074 33.7709 10.6028 32.6003 10.9398 31.778L10.5697 31.6263C10.2256 32.466 9.8253 33.6521 9.51092 34.7896C9.19843 35.9203 8.96347 37.0286 8.96347 37.7021H9.36347ZM10.9527 31.7307C11.0146 31.3013 11.0498 31.0357 11.0792 30.8595C11.1098 30.6756 11.1291 30.628 11.1412 30.6088C11.1528 30.5903 11.1557 30.5923 11.2616 30.5108C11.3539 30.4399 11.4778 30.3338 11.652 30.1299L11.348 29.8701C11.1923 30.0522 11.0887 30.1392 11.0177 30.1938C10.9603 30.2379 10.8641 30.2981 10.8026 30.3958C10.7415 30.4929 10.7136 30.6196 10.6846 30.7938C10.6543 30.9757 10.6176 31.2519 10.5568 31.6736L10.9527 31.7307ZM11.3488 29.8691C11.3309 29.8897 11.3123 29.9188 11.3025 29.9567C11.2923 29.9959 11.294 30.0352 11.3045 30.0706C11.3238 30.1353 11.3673 30.1717 11.3871 30.1862C11.4289 30.217 11.4757 30.2309 11.5092 30.2361C11.5193 30.2376 11.5325 30.2391 11.5476 30.239C11.5603 30.239 11.5867 30.238 11.6174 30.2274C11.6449 30.2179 11.7165 30.1855 11.7449 30.0979C11.7727 30.0123 11.7357 29.9453 11.7212 29.9231C11.7043 29.8973 11.6851 29.8805 11.6756 29.8726C11.6642 29.8633 11.6531 29.8559 11.644 29.8502C11.6259 29.839 11.6055 29.8285 11.5843 29.8186L11.4157 30.1814C11.4291 30.1876 11.4336 30.1904 11.4327 30.1898C11.4323 30.1896 11.4279 30.1869 11.4216 30.1817C11.417 30.1779 11.4012 30.1647 11.3863 30.1419C11.3737 30.1227 11.3373 30.0581 11.3644 29.9745C11.3922 29.8888 11.4621 29.8578 11.4869 29.8492C11.5148 29.8396 11.5377 29.839 11.546 29.839C11.5568 29.839 11.5651 29.84 11.5699 29.8407C11.5819 29.8426 11.6007 29.8468 11.624 29.864C11.6345 29.8717 11.6712 29.9002 11.6879 29.9565C11.6972 29.9877 11.6987 30.0226 11.6897 30.0573C11.681 30.0906 11.6649 30.115 11.6512 30.1309L11.3488 29.8691ZM11.3 30C11.3 30.2534 11.3054 30.3866 11.3081 30.4537C11.3088 30.4708 11.3093 30.4809 11.3094 30.4877C11.3097 30.4995 11.3087 30.4883 11.3111 30.4722C11.3114 30.4703 11.316 30.4266 11.3487 30.3836C11.3693 30.3565 11.404 30.326 11.4546 30.3123C11.5033 30.299 11.5448 30.3072 11.5699 30.3156C11.5939 30.3237 11.6107 30.3346 11.6186 30.34C11.6272 30.346 11.6334 30.3513 11.6362 30.3538C11.641 30.358 11.6448 30.362 11.642 30.3591L11.358 30.6409C11.3585 30.6413 11.3601 30.6429 11.3618 30.6446C11.3635 30.6463 11.3667 30.6494 11.3708 30.653C11.3726 30.6546 11.3997 30.6804 11.4423 30.6947C11.4681 30.7034 11.5103 30.7116 11.5596 30.6982C11.6108 30.6843 11.646 30.6535 11.6671 30.6257C11.7007 30.5815 11.7061 30.5356 11.7069 30.5302C11.7102 30.5073 11.7094 30.4846 11.7093 30.4784C11.709 30.4672 11.7084 30.4529 11.7078 30.4374C11.7052 30.3742 11.7 30.2466 11.7 30H11.3ZM11.3477 30.3704C11.2212 30.519 11.1351 30.6456 11.125 30.7843C11.1198 30.8566 11.1363 30.9158 11.1499 30.9573C11.1662 31.0065 11.1736 31.0209 11.1844 31.0607C11.215 31.1738 11.2531 31.4555 10.8635 32.3626L11.231 32.5205C11.629 31.5939 11.638 31.2051 11.5704 30.956C11.5567 30.9052 11.5352 30.8483 11.5299 30.8322C11.522 30.8083 11.5244 30.808 11.524 30.8133C11.5236 30.8183 11.5233 30.7812 11.6523 30.6296L11.3477 30.3704ZM10.8635 32.3626C10.0716 34.2063 9.6659 35.7421 9.6659 36.9613H10.0659C10.0659 35.8214 10.4478 34.3441 11.231 32.5205L10.8635 32.3626ZM9.6659 36.9613C9.6659 37.8313 9.87673 38.5994 10.3049 39.2578L10.6402 39.0398C10.2595 38.4543 10.0659 37.7641 10.0659 36.9613H9.6659ZM10.3049 39.2578C10.7308 39.9128 11.7374 40.8324 13.289 42.0103L13.5309 41.6917C11.9748 40.5105 11.0231 39.6286 10.6402 39.0398L10.3049 39.2578ZM13.2978 42.0166L15.2455 43.3355L15.4697 43.0043L13.5221 41.6854L13.2978 42.0166ZM15.2308 43.3246C16.3121 44.2111 17.1155 44.9714 17.6467 45.6064C18.1863 46.2513 18.4143 46.7314 18.4143 47.0624H18.8143C18.8143 46.5785 18.4995 46.0023 17.9535 45.3497C17.3992 44.6872 16.5742 43.9087 15.4844 43.0153L15.2308 43.3246ZM18.4143 47.0624C18.4143 47.3392 18.2294 47.6855 17.7625 48.1037L18.0293 48.4016C18.5203 47.9619 18.8143 47.5147 18.8143 47.0624H18.4143ZM17.7625 48.1037C17.3021 48.516 16.8955 48.696 16.539 48.696V49.096C17.0338 49.096 17.5319 48.8471 18.0293 48.4016L17.7625 48.1037ZM16.539 48.696C16.493 48.696 16.4439 48.7082 16.3995 48.738C16.3564 48.767 16.3289 48.805 16.3119 48.8393C16.2806 48.9023 16.2751 48.9717 16.2751 49.0247H16.6751C16.6751 49.011 16.676 49.0036 16.6764 49.001C16.6769 48.998 16.6762 49.005 16.6702 49.0171C16.6638 49.03 16.6497 49.0519 16.6225 49.0701C16.5941 49.0892 16.5636 49.096 16.539 49.096V48.696ZM16.2751 49.0247C16.2751 49.0999 16.2936 49.1738 16.3211 49.2433L16.6929 49.0957C16.6779 49.0579 16.6751 49.0353 16.6751 49.0247H16.2751ZM16.3211 49.2433C16.3481 49.3112 16.4191 49.4468 16.5235 49.636L16.8737 49.4428C16.7652 49.246 16.7085 49.135 16.6929 49.0957L16.3211 49.2433ZM16.5235 49.636C16.6281 49.8258 16.7439 50.0484 16.8707 50.3039L17.229 50.1261C17.1003 49.8668 16.9819 49.639 16.8737 49.4428L16.5235 49.636ZM16.8929 50.3389C17.782 51.4644 19.4599 51.9912 21.8391 51.9912V51.5912C19.4928 51.5912 17.9779 51.0672 17.2067 50.091L16.8929 50.3389ZM21.8391 51.9912C26.0342 51.9912 29.3003 50.2646 31.6155 46.8201L31.2836 46.597C29.0437 49.9294 25.9028 51.5912 21.8391 51.5912V51.9912ZM31.6496 46.7085C31.6496 45.7469 31.6391 45.136 31.6168 44.8891L31.2184 44.925C31.2387 45.1499 31.2496 45.74 31.2496 46.7085H31.6496ZM31.6168 44.8891C31.596 44.6585 31.5857 44.4394 31.5857 44.2315H31.1857C31.1857 44.4525 31.1967 44.6838 31.2184 44.925L31.6168 44.8891ZM31.5857 44.2315C31.5857 43.0295 31.7319 42.1571 32.0048 41.5922C32.1399 41.3124 32.3026 41.1155 32.4871 40.9882C32.6699 40.862 32.8855 40.7964 33.1418 40.7964V40.3964C32.8126 40.3964 32.5161 40.4822 32.2599 40.659C32.0053 40.8346 31.8022 41.0921 31.6446 41.4182C31.3322 42.0649 31.1857 43.0101 31.1857 44.2315H31.5857ZM33.1418 40.7964C33.4542 40.7964 33.7885 40.9072 34.1477 41.1484L34.3708 40.8164C33.9637 40.543 33.553 40.3964 33.1418 40.3964V40.7964ZM34.457 41.0126C34.6291 39.8852 34.7147 38.5987 34.7147 37.1543H34.3147C34.3147 38.5837 34.23 39.8493 34.0616 40.9522L34.457 41.0126ZM34.7147 37.1543C34.7147 35.4296 34.5864 33.946 34.3273 32.7062L33.9358 32.788C34.1876 33.9931 34.3147 35.4476 34.3147 37.1543H34.7147ZM34.3273 32.7062C34.0701 31.4755 33.7565 30.5149 33.3806 29.8355L33.0306 30.0291C33.3785 30.6579 33.6821 31.5739 33.9358 32.788L34.3273 32.7062ZM33.3806 29.8355C33.0155 29.1755 32.6441 28.5841 32.2661 28.0619L31.9421 28.2964C32.3091 28.8035 32.672 29.3809 33.0306 30.0291L33.3806 29.8355ZM32.2661 28.0619C31.9023 27.5592 31.5845 27.003 31.313 26.3928L30.9475 26.5555C31.2295 27.1892 31.5609 27.7697 31.9421 28.2964L32.2661 28.0619ZM31.313 26.3928C31.048 25.7973 30.8926 25.1036 30.8511 24.3084L30.4516 24.3293C30.4952 25.1639 30.6591 25.9072 30.9475 26.5555L31.313 26.3928ZM30.8297 24.2283C30.342 23.2669 29.8861 22.2949 29.462 21.3122L29.0948 21.4707C29.5221 22.461 29.9815 23.4406 30.473 24.4093L30.8297 24.2283ZM29.462 21.3122C29.0352 20.323 28.6395 19.4717 28.2751 18.759L27.919 18.9411C28.2783 19.6439 28.6702 20.4869 29.0948 21.4707L29.462 21.3122ZM27.9779 18.6894L26.2857 19.944L26.524 20.2653L28.2162 19.0107L27.9779 18.6894ZM26.2858 19.9439C24.5313 21.2431 23.0521 21.867 21.8391 21.867V22.267C23.1803 22.267 24.745 21.5826 26.5239 20.2654L26.2858 19.9439ZM21.8391 21.867C20.6138 21.867 19.7645 21.5532 19.2424 20.9687L18.9441 21.2351C19.5714 21.9374 20.5527 22.267 21.8391 22.267V21.867ZM19.2352 20.961L18.2454 19.9638L17.9615 20.2456L18.9513 21.2428L19.2352 20.961ZM17.9059 20.0733C17.8251 20.5826 17.5891 21.2708 17.1874 22.1443L17.5508 22.3114C17.9579 21.4263 18.2116 20.6991 18.301 20.136L17.9059 20.0733ZM17.1894 22.14L16.1039 24.3596L16.4632 24.5354L17.5488 22.3157L17.1894 22.14ZM16.0976 24.3737C15.7989 25.1261 15.5736 25.7365 15.4227 26.2036L15.8033 26.3265C15.9504 25.8714 16.1721 25.2701 16.4694 24.5213L16.0976 24.3737ZM15.4227 26.2036C15.3475 26.4363 15.2901 26.6315 15.2513 26.7879C15.2137 26.9394 15.1895 27.0698 15.1895 27.1658H15.5895C15.5895 27.1224 15.6026 27.0329 15.6395 26.8842C15.6752 26.7403 15.7296 26.5549 15.8033 26.3265L15.4227 26.2036ZM15.1895 27.1658C15.1895 27.3004 15.1844 27.4169 15.1745 27.516L15.5726 27.5555C15.584 27.4401 15.5895 27.31 15.5895 27.1658H15.1895ZM15.1745 27.516C15.1657 27.6054 15.1429 27.7087 15.1039 27.8268L15.4836 27.9524C15.5297 27.8132 15.5602 27.6805 15.5726 27.5555L15.1745 27.516ZM15.1163 27.7974L13.6795 30.564L14.0345 30.7483L15.4712 27.9818L15.1163 27.7974ZM13.6791 30.5647C12.1397 33.5589 11.3581 36.1332 11.3581 38.2802H11.7581C11.7581 36.2238 12.5091 33.7154 14.0348 30.7476L13.6791 30.5647ZM11.3581 38.2802C11.3581 38.5721 11.4709 39.9338 11.5567 40.5391L11.9528 40.4829C11.8683 39.8872 11.7581 38.546 11.7581 38.2802H11.3581ZM11.8692 40.347C11.4504 40.0549 10.815 39.6236 10.2829 39.136C10.0172 38.8926 9.78381 38.6409 9.61808 38.3921C9.45132 38.1417 9.36347 37.9099 9.36347 37.7021H8.96347C8.96347 38.0198 9.09577 38.3295 9.28517 38.6138C9.4756 38.8997 9.7344 39.176 10.0127 39.431C10.5687 39.9404 11.229 40.3881 11.6403 40.675L11.8692 40.347ZM23.8506 54.7438C21.4513 54.7438 19.5238 55.0779 18.0818 55.7603L18.2529 56.1218C19.6205 55.4746 21.4819 55.1438 23.8506 55.1438V54.7438ZM18.3673 55.9411V55.8767H17.9673V55.9411H18.3673ZM18.0029 55.7628C17.2554 56.8417 16.1908 57.3817 14.7829 57.3817V57.7817C16.3124 57.7817 17.5041 57.185 18.3317 55.9906L18.0029 55.7628ZM14.7829 57.3817C13.9045 57.3817 12.4958 57.0494 10.5387 56.3635L10.4064 56.741C12.3659 57.4277 13.8307 57.7817 14.7829 57.7817V57.3817ZM10.5387 56.3635C8.57572 55.6756 6.84422 55.1585 5.34501 54.8133L5.25524 55.2031C6.73602 55.5441 8.45281 56.0564 10.4064 56.741L10.5387 56.3635ZM5.34898 54.8142C5.16921 54.7689 4.81501 54.7034 4.29492 54.6178L4.22999 55.0125C4.75289 55.0985 5.09047 55.1616 5.25128 55.2021L5.34898 54.8142ZM4.29492 54.6178C3.77657 54.5325 3.30696 54.4421 2.88585 54.3467L2.79742 54.7368C3.22773 54.8343 3.70534 54.9262 4.22999 55.0125L4.29492 54.6178ZM2.88585 54.3467C2.46647 54.2516 2.02512 54.1299 1.56169 53.9813L1.43958 54.3622C1.91273 54.5139 2.36537 54.6388 2.79742 54.7368L2.88585 54.3467ZM1.56169 53.9813C1.11038 53.8366 0.770734 53.6549 0.53179 53.4431L0.266422 53.7424C0.55962 54.0023 0.954331 54.2066 1.43958 54.3622L1.56169 53.9813ZM0.53179 53.4431C0.299881 53.2374 0.2 53.0209 0.2 52.7885H-0.2C-0.2 53.1566 -0.0338101 53.4762 0.266422 53.7424L0.53179 53.4431ZM0.2 52.7885C0.2 52.3998 0.26123 52.1008 0.370724 51.8802L0.0124182 51.7023C-0.133516 51.9964 -0.2 52.3622 -0.2 52.7885H0.2ZM0.370724 51.8802C0.407999 51.805 0.498224 51.6527 0.648023 51.4155L0.309831 51.2019C0.161631 51.4365 0.0602856 51.6059 0.0124182 51.7023L0.370724 51.8802ZM0.648023 51.4155C0.796903 51.1798 0.90096 51.009 0.957387 50.9067L0.607108 50.7135C0.557107 50.8042 0.45895 50.9658 0.309831 51.2019L0.648023 51.4155ZM0.957387 50.9067C1.01275 50.8063 1.0888 50.6584 1.1849 50.4647L0.826594 50.2869C0.731128 50.4793 0.658174 50.6209 0.607108 50.7135L0.957387 50.9067ZM1.1849 50.4647C1.28204 50.269 1.35506 50.1057 1.4014 49.9773L1.02516 49.8415C0.986365 49.9489 0.921024 50.0966 0.826594 50.2869L1.1849 50.4647ZM1.4014 49.9773C1.44876 49.846 1.48845 49.6901 1.52166 49.5117L1.12841 49.4385C1.09776 49.6032 1.06294 49.7368 1.02516 49.8415L1.4014 49.9773ZM1.52166 49.5117C1.55579 49.3282 1.57292 49.1444 1.57292 48.9604H1.17292C1.17292 49.1194 1.15813 49.2788 1.12841 49.4385L1.52166 49.5117ZM1.57292 48.9604C1.57292 48.8683 1.55036 48.6731 1.51111 48.3937C1.47092 48.1075 1.4108 47.7172 1.33089 47.2235L0.936029 47.2873C1.01576 47.7801 1.07538 48.1672 1.115 48.4493C1.15558 48.7383 1.17292 48.9023 1.17292 48.9604H1.57292ZM1.33089 47.2235C1.17034 46.2313 1.094 45.6273 1.094 45.3896H0.693997C0.693997 45.6666 0.777301 46.3065 0.936029 47.2873L1.33089 47.2235ZM1.094 45.3896C1.094 44.5625 1.29392 43.951 1.66677 43.5272L1.36644 43.263C0.909149 43.7828 0.693997 44.501 0.693997 45.3896H1.094ZM1.66677 43.5272C2.06477 43.0748 2.42438 42.8874 2.74585 42.8874V42.4874C2.25847 42.4874 1.79858 42.7718 1.36644 43.263L1.66677 43.5272ZM2.74585 42.8874H4.88506V42.4874H2.74585V42.8874ZM4.88506 42.8874C5.1545 42.8874 5.48115 42.7558 5.8491 42.5378L5.64516 42.1936C5.28939 42.4045 5.04133 42.4874 4.88506 42.4874V42.8874ZM5.93117 42.444C6.06062 42.1396 6.15944 41.8748 6.22617 41.6507L5.8428 41.5366C5.78182 41.7414 5.68906 41.9913 5.56308 42.2874L5.93117 42.444ZM6.22192 41.6634L6.41349 41.1487L6.03862 41.0092L5.84704 41.5239L6.22192 41.6634ZM6.42017 41.1271C6.43698 41.0593 6.46809 40.9768 6.51696 40.8783L6.15865 40.7005C6.10109 40.8165 6.0577 40.9269 6.03194 41.0308L6.42017 41.1271ZM6.51696 40.8783C6.55978 40.792 6.63853 40.6776 6.76153 40.533L6.45686 40.2738C6.32444 40.4294 6.22225 40.5723 6.15865 40.7005L6.51696 40.8783ZM6.76751 40.2812C6.65131 40.1306 6.5857 39.93 6.5857 39.6635H6.1857C6.1857 39.9975 6.26909 40.2901 6.45088 40.5256L6.76751 40.2812ZM6.5857 39.6635V39.1488H6.1857V39.6635H6.5857ZM6.5857 39.1488C6.5857 38.9483 6.65824 38.616 6.82239 38.1358C6.98448 37.6617 7.2291 37.0622 7.55769 36.336L7.19326 36.1711C6.86201 36.9032 6.61173 37.5155 6.44389 38.0064C6.27812 38.4913 6.1857 38.8774 6.1857 39.1488H6.5857ZM7.54569 36.3586L8.28004 35.1683L7.93962 34.9583L7.20527 36.1485L7.54569 36.3586ZM8.2859 35.1582L8.89254 34.0322L8.54041 33.8425L7.93376 34.9684L8.2859 35.1582ZM8.89393 34.0296C9.12785 33.5797 9.28388 33.2451 9.35335 33.0351L8.9736 32.9095C8.91535 33.0855 8.77338 33.3943 8.53902 33.8451L8.89393 34.0296ZM9.34788 33.0497L9.69909 32.2133L9.33028 32.0585L8.97907 32.8949L9.34788 33.0497ZM9.69982 32.2116C9.85297 31.8368 9.98874 31.4149 10.1076 30.9466L9.71994 30.8482C9.60471 31.3021 9.4744 31.7058 9.32955 32.0603L9.69982 32.2116ZM10.1076 30.9466C10.2259 30.4807 10.3597 29.8711 10.5091 29.1188L10.1167 29.0409C9.96805 29.7899 9.83579 30.3919 9.71994 30.8482L10.1076 30.9466ZM10.5072 29.1272C10.7953 27.9454 11.4989 26.6971 12.6353 25.3825L12.3327 25.1209C11.1703 26.4656 10.4265 27.7695 10.1186 29.0325L10.5072 29.1272ZM12.6345 25.3835L14.0713 23.7429L13.7704 23.4793L12.3336 25.12L12.6345 25.3835ZM14.0772 23.7358C15.0384 22.5306 15.705 21.5289 16.0665 20.7344L15.7024 20.5687C15.3614 21.3183 14.7189 22.2897 13.7645 23.4864L14.0772 23.7358ZM16.0665 20.7344C16.4296 19.936 16.6112 19.0928 16.6112 18.2067H16.2112C16.2112 19.0363 16.0416 19.823 15.7024 20.5687L16.0665 20.7344ZM16.6112 18.2067C16.6112 17.85 16.5083 16.7209 16.3068 14.8398L15.9091 14.8824C16.1119 16.7758 16.2112 17.8771 16.2112 18.2067H16.6112ZM16.3068 14.8398C16.1053 12.9593 16.0046 11.1114 16.0046 9.29584H15.6046C15.6046 11.1262 15.7061 12.9884 15.9091 14.8824L16.3068 14.8398ZM16.0046 9.29584C16.0046 6.58042 16.6679 4.58081 17.9591 3.25914C19.2496 1.93833 21.2006 1.26055 23.8506 1.26055V0.860547C21.1366 0.860547 19.0646 1.55531 17.673 2.9796C16.2823 4.40303 15.6046 6.52107 15.6046 9.29584H16.0046ZM23.8506 1.26055C24.3924 1.26055 24.9508 1.30778 25.5262 1.40264L25.5913 1.00797C24.9959 0.909817 24.4156 0.860547 23.8506 0.860547V1.26055ZM25.5262 1.40264C26.0893 1.49548 26.7696 1.71399 27.5699 2.06409L27.7302 1.69763C26.9128 1.34001 26.1989 1.10815 25.5913 1.00797L25.5262 1.40264ZM27.5699 2.06409C28.3601 2.4098 29.0659 2.85965 29.6882 3.41353L29.9542 3.11473C29.2994 2.53197 28.5577 2.05964 27.7302 1.69763L27.5699 2.06409ZM29.6882 3.41353C30.3029 3.96055 30.8745 4.74228 31.3992 5.76791L31.7553 5.58572C31.2158 4.53108 30.6167 3.70436 29.9542 3.11473L29.6882 3.41353ZM31.3992 5.76791C31.919 6.78382 32.2645 7.96694 32.4324 9.32047L32.8294 9.27122C32.6567 7.87965 32.2999 6.65008 31.7553 5.58572L31.3992 5.76791ZM32.433 9.32449C32.5812 10.3486 32.7138 11.5773 32.8307 13.0115L33.2294 12.979C33.1121 11.5395 32.9786 10.3019 32.8288 9.26719L32.433 9.32449ZM32.8307 13.0115C32.9478 14.4486 33.0547 15.4792 33.1517 16.0984L33.5469 16.0365C33.4524 15.4333 33.3464 14.4157 33.2294 12.979L32.8307 13.0115ZM33.1517 16.0984C33.2496 16.7229 33.4495 17.5265 33.7487 18.5064L34.1313 18.3895C33.8345 17.4178 33.6406 16.6344 33.5469 16.0365L33.1517 16.0984ZM33.7487 18.5064C34.0524 19.501 34.5075 20.4718 35.1124 21.4187L35.4495 21.2033C34.8625 20.2844 34.4235 19.3466 34.1313 18.3895L33.7487 18.5064ZM35.1124 21.4187C35.7141 22.3605 36.5283 23.4556 37.553 24.7031L37.8621 24.4492C36.8434 23.209 36.0398 22.1273 35.4495 21.2033L35.1124 21.4187ZM37.5507 24.7003C39.1389 26.7058 40.3803 28.692 41.2772 30.6587L41.6411 30.4927C40.7287 28.4919 39.469 26.4784 37.8643 24.452L37.5507 24.7003ZM41.2772 30.6587C42.1673 32.6108 42.6161 34.9349 42.6161 37.6368H43.0161C43.0161 34.8915 42.5602 32.5082 41.6411 30.4927L41.2772 30.6587ZM42.6161 37.6368C42.6161 38.9252 42.4275 40.1592 42.0508 41.3398L42.4319 41.4614C42.8216 40.24 43.0161 38.9649 43.0161 37.6368H42.6161ZM42.2414 41.6006C42.5688 41.6006 42.7976 41.7157 42.9575 41.9362L43.2813 41.7014C43.0368 41.3643 42.6803 41.2006 42.2414 41.2006V41.6006ZM42.9575 41.9362C43.0392 42.0489 43.1232 42.233 43.203 42.5029C43.2821 42.77 43.3535 43.1089 43.4166 43.5218L43.812 43.4614C43.7473 43.0379 43.6725 42.6798 43.5866 42.3894C43.5015 42.1016 43.4018 41.8676 43.2813 41.7014L42.9575 41.9362ZM43.4176 43.5279L43.6731 44.9112L44.0664 44.8386L43.811 43.4553L43.4176 43.5279ZM43.6736 44.9138C43.7701 45.4003 44.0639 45.8297 44.526 46.2044L44.778 45.8937C44.3673 45.5607 44.1396 45.2073 44.0659 44.8359L43.6736 44.9138ZM44.526 46.2044C44.975 46.5685 45.4427 46.8572 45.9291 47.0689L46.0887 46.7021C45.6386 46.5062 45.2016 46.2373 44.778 45.8937L44.526 46.2044ZM45.9291 47.0689C46.3764 47.2635 46.7833 47.5298 47.1504 47.8688L47.4218 47.5749C47.0225 47.2062 46.578 46.9149 46.0887 46.7021L45.9291 47.0689ZM47.1504 47.8688C47.5021 48.1936 47.6608 48.5347 47.6608 48.896H48.0608C48.0608 48.3995 47.8364 47.9578 47.4218 47.5749L47.1504 47.8688ZM47.6608 48.896C47.6608 49.4823 47.506 49.9162 47.2196 50.2233L47.5122 50.4961C47.8856 50.0956 48.0608 49.5536 48.0608 48.896H47.6608ZM47.2196 50.2233C46.9133 50.5519 46.5258 50.8034 46.0522 50.976L46.1892 51.3519C46.716 51.1599 47.1586 50.8753 47.5122 50.4961L47.2196 50.2233ZM46.0522 50.976C45.5348 51.1646 44.7879 51.5419 43.8178 52.1005L44.0174 52.4471C44.9843 51.8904 45.7062 51.5279 46.1892 51.3519L46.0522 50.976ZM43.8178 52.1005C42.8379 52.6646 41.8756 53.3473 40.9307 54.1478L41.1893 54.453C42.1176 53.6666 43.0603 52.9981 44.0174 52.4471L43.8178 52.1005ZM40.9304 54.1481L39.0785 55.7244L39.3378 56.029L41.1897 54.4527L40.9304 54.1481ZM39.0759 55.7267C38.2295 56.4729 37.5131 57.0036 36.925 57.3259L37.1172 57.6767C37.7423 57.3341 38.484 56.7818 39.3404 56.0267L39.0759 55.7267ZM36.925 57.3259C36.3509 57.6405 35.6981 57.7999 34.9617 57.7999V58.1999C35.7579 58.1999 36.478 58.0269 37.1172 57.6767L36.925 57.3259ZM34.9973 57.8031L33.7521 57.5779L33.6809 57.9715L34.9261 58.1967L34.9973 57.8031ZM33.7602 57.5795C32.2717 57.2463 31.3615 56.5399 30.9663 55.4849L30.5918 55.6252C31.048 56.8435 32.0961 57.6169 33.6728 57.9699L33.7602 57.5795ZM30.8069 55.357C27.9082 54.949 25.5882 54.7438 23.8506 54.7438V55.1438C25.5612 55.1438 27.8602 55.3461 30.7512 55.7531L30.8069 55.357Z" fill="#ff5c00" mask="url(#path-1-outside-1_183_61269)"/>
</svg>
