<svg width="44" height="51" viewBox="0 0 44 51" fill="none" xmlns="http://www.w3.org/2000/svg">
<path d="M36.25 16.9167H41.0833C41.7243 16.9167 42.339 17.1713 42.7922 17.6245C43.2454 18.0777 43.5 18.6924 43.5 19.3333V48.3333C43.5 48.9743 43.2454 49.589 42.7922 50.0422C42.339 50.4954 41.7243 50.75 41.0833 50.75H2.41667C1.77573 50.75 1.16104 50.4954 0.707825 50.0422C0.254612 49.589 0 48.9743 0 48.3333V19.3333C0 18.6924 0.254612 18.0777 0.707825 17.6245C1.16104 17.1713 1.77573 16.9167 2.41667 16.9167H7.25V14.5C7.25 10.6544 8.77767 6.96623 11.497 4.24695C14.2162 1.52767 17.9044 0 21.75 0C25.5956 0 29.2838 1.52767 32.0031 4.24695C34.7223 6.96623 36.25 10.6544 36.25 14.5V16.9167ZM4.83333 21.75V45.9167H38.6667V21.75H4.83333ZM19.3333 31.4167H24.1667V36.25H19.3333V31.4167ZM9.66667 31.4167H14.5V36.25H9.66667V31.4167ZM29 31.4167H33.8333V36.25H29V31.4167ZM31.4167 16.9167V14.5C31.4167 11.9362 30.3982 9.47749 28.5854 7.66463C26.7725 5.85178 24.3138 4.83333 21.75 4.83333C19.1862 4.83333 16.7275 5.85178 14.9146 7.66463C13.1018 9.47749 12.0833 11.9362 12.0833 14.5V16.9167H31.4167Z" fill="black"/>
</svg>
