<svg width="109" height="103" viewBox="0 0 109 103" fill="none" xmlns="http://www.w3.org/2000/svg">
<path d="M99.7029 21.5293C99.7387 36.7367 96.4536 52.0101 88.2518 65.2244L88.2502 65.2269C81.2774 76.7698 70.8765 86.3055 58.9323 93.5303L58.9313 93.5309C57.1847 94.5982 55.3967 95.6242 53.5669 96.6318C53.4583 96.6917 53.4099 96.8221 53.4533 96.9383C53.4967 97.0545 53.6187 97.1213 53.74 97.0953C62.0837 95.3045 69.9796 91.587 76.8872 86.6538C80.3175 84.2268 83.5813 81.3099 86.4214 78.2915L86.4223 78.2906C92.713 71.5347 97.3905 63.5064 100.109 54.9476L100.11 54.9443C103.393 44.0885 103.812 32.2954 100.197 21.4673C100.172 21.3557 100.072 21.2723 99.9525 21.2725C99.8146 21.2726 99.7028 21.3845 99.7028 21.5225V21.5231L99.7029 21.5293Z" fill="white" stroke="white" stroke-width="0.5" stroke-linejoin="round"/>
<path d="M55.0305 96.8958C54.9921 96.9409 54.9711 96.9982 54.9711 97.0575V97.0611C54.9711 97.1548 55.0235 97.2406 55.1068 97.2834C55.19 97.3263 55.2903 97.319 55.3665 97.2645C82.4594 77.8954 86.5651 39.7838 64.9524 14.86C62.0758 11.5397 58.8641 8.45841 55.1968 5.9756C55.0935 5.90569 54.9545 5.92257 54.871 6.01517C54.7875 6.10776 54.785 6.24776 54.8651 6.3433C57.6451 9.65696 60.1122 13.1198 62.3037 16.7101L62.3046 16.7116C78.7815 43.2983 75.1504 73.1769 55.0305 96.8958Z" fill="white" stroke="white" stroke-width="0.5" stroke-linejoin="round"/>
<path d="M8.72391 81.5547C8.76179 81.6719 8.87937 81.744 9.001 81.7247C9.12264 81.7054 9.21208 81.6003 9.2118 81.4772C9.17629 66.2655 12.352 50.9878 20.2818 37.7743L20.2818 37.7743L20.2834 37.7717C27.0238 26.2281 37.0778 16.6924 48.6225 9.4681L48.6235 9.46748C50.3117 8.40024 52.04 7.37423 53.8087 6.36664C53.9162 6.30542 53.9627 6.17483 53.9182 6.05944C53.8737 5.94405 53.7515 5.87855 53.6308 5.90536C45.5627 7.69673 37.9285 11.4154 31.2504 16.3494C27.9339 18.7769 24.7787 21.6942 22.0333 24.7128L22.0324 24.7137C15.951 31.4703 11.4298 39.4987 8.80186 48.057L8.80091 48.0603C5.62648 58.9222 5.22283 70.7222 8.72391 81.5547Z" fill="white" stroke="white" stroke-width="0.5" stroke-linejoin="round"/>
<path d="M53.9703 6.1041C54.0519 6.00788 54.0491 5.86592 53.9636 5.77308C53.8782 5.68024 53.7369 5.66563 53.6343 5.73901C26.5414 25.1082 22.4356 63.2198 44.0485 88.1399C46.925 91.4602 50.1367 94.5415 53.804 97.0243C53.9072 97.0942 54.0462 97.0773 54.1298 96.9847C54.2133 96.8921 54.2158 96.7521 54.1357 96.6566C51.3557 93.3429 48.8886 89.8801 46.6971 86.2897L46.6962 86.2883C30.2193 59.7015 33.8503 29.823 53.9703 6.1041Z" fill="white" stroke="white" stroke-width="0.5" stroke-linejoin="round"/>
</svg>
