<svg width="37" height="44" viewBox="0 0 37 44" fill="none" xmlns="http://www.w3.org/2000/svg">
<path d="M17.5265 1.31532C17.806 0.524161 18.5578 0 19.3969 0H35C36.1046 0 37 0.895431 37 2V42C37 43.1046 36.1046 44 35 44H19C17.8954 44 16.9975 43.1038 17.0275 41.9996C17.1885 36.0821 18 31.3964 18 26.5C18 25.6621 12.5 32.33 12.5 31.5C12.5 24.498 12.5 15.5471 17.5265 1.31532Z" fill="#ff5c00"/>
<path d="M1 29.5C11.7169 33.9909 17.6172 33.6961 28 29.5" stroke="#ff5c00" stroke-width="2" stroke-linecap="round"/>
<rect x="6" y="12" width="3" height="8" rx="1.5" fill="#ff5c00"/>
<path d="M18.5002 0.5C16.6668 4.33333 12.9002 13.9 12.5002 21.5C12.1002 29.1 12.3335 31.6667 12.5002 32L18.5002 26V43.5" stroke="#ff5c00"/>
<rect x="23" y="12" width="3" height="8" rx="1.5" fill="#C5E861"/>
<mask id="mask0_183_61237" style="mask-type:alpha" maskUnits="userSpaceOnUse" x="17" y="23" width="18" height="16">
<path d="M17 39L18 27.5L34 23L34.5 37.5L17 39Z" fill="#D9D9D9"/>
</mask>
<g mask="url(#mask0_183_61237)">
<path d="M1 29.5C11.7169 33.9909 17.6172 33.6961 28 29.5" stroke="#C5E861" stroke-width="2" stroke-linecap="round"/>
</g>
</svg>
