<svg width="26" height="33" viewBox="0 0 26 33" fill="none" xmlns="http://www.w3.org/2000/svg">
<path d="M25 8.73828V23.7383C25 29.7383 23.5 31.2383 17.5 31.2383H8.5C2.5 31.2383 1 29.7383 1 23.7383V8.73828C1 2.73828 2.5 1.23828 8.5 1.23828H17.5C23.5 1.23828 25 2.73828 25 8.73828Z" stroke="#FF5C00" stroke-width="2" stroke-linecap="round" stroke-linejoin="round"/>
<path d="M16 6.48828H10" stroke="#FF5C00" stroke-width="2" stroke-linecap="round" stroke-linejoin="round"/>
<path d="M12.9998 26.8883C14.2839 26.8883 15.3248 25.8473 15.3248 24.5633C15.3248 23.2792 14.2839 22.2383 12.9998 22.2383C11.7157 22.2383 10.6748 23.2792 10.6748 24.5633C10.6748 25.8473 11.7157 26.8883 12.9998 26.8883Z" stroke="#FF5C00" stroke-width="2" stroke-linecap="round" stroke-linejoin="round"/>
</svg>
