<svg width="129" height="121" viewBox="0 0 129 121" fill="none" xmlns="http://www.w3.org/2000/svg">
<g clip-path="url(#clip0_183_61414)">
<path d="M124.485 21.3693C124.533 41.2346 120.177 61.1902 109.299 78.4577L109.297 78.4602C100.049 93.5435 86.2547 106.002 70.4169 115.44L70.4159 115.441C68.1 116.835 65.7294 118.175 63.3036 119.491C63.1945 119.551 63.1453 119.681 63.1882 119.798C63.2311 119.914 63.3531 119.981 63.4746 119.956C74.5193 117.62 84.9728 112.772 94.119 106.337C98.6602 103.171 102.982 99.3663 106.742 95.4286L106.743 95.4277C115.072 86.6153 121.265 76.1432 124.865 64.9791L124.866 64.9757C129.212 50.8127 129.766 35.4293 124.98 21.3077C124.955 21.1948 124.855 21.1102 124.735 21.1104C124.597 21.1105 124.485 21.2224 124.485 21.3604V21.361L124.485 21.3693Z" fill="#FF5C00" stroke="#FF5C00" stroke-width="0.5" stroke-linejoin="round"/>
<path d="M65.2043 119.982C65.2043 119.922 65.2258 119.864 65.2648 119.818C91.9481 88.8276 96.7659 49.7829 74.9115 15.0408L74.9106 15.0394C72.0044 10.3486 68.7327 5.82434 65.046 1.49485C64.9651 1.39988 64.9666 1.25985 65.0495 1.16664C65.1324 1.07343 65.2713 1.05557 65.3751 1.12478C70.2276 4.3614 74.4787 8.37922 78.2877 12.7108L65.2043 119.982ZM65.2043 119.982V119.986C65.2043 120.08 65.2563 120.165 65.3391 120.208M65.2043 119.982L65.3391 120.208M65.3391 120.208C65.422 120.251 65.5219 120.244 65.5982 120.191M65.3391 120.208L65.5982 120.191M65.5982 120.191C101.464 94.9289 106.901 45.2196 78.2878 12.7109L65.5982 120.191Z" fill="#FF5C00" stroke="#FF5C00" stroke-width="0.5" stroke-linejoin="round"/>
<path d="M3.91461 99.7176C3.95293 99.8344 4.07052 99.906 4.1919 99.8864C4.31329 99.8669 4.40244 99.762 4.40215 99.639C4.35508 79.7685 8.56566 59.8076 19.0833 42.5412L19.0848 42.5386C28.025 27.4544 41.3587 14.9958 56.6673 5.55789L56.6683 5.55729C58.9069 4.16307 61.1984 2.82284 63.5431 1.50683C63.6511 1.44622 63.6985 1.3157 63.6544 1.19995C63.6104 1.08421 63.4883 1.01813 63.3673 1.04459C52.6881 3.38066 42.5812 8.23058 33.7389 14.667C29.3489 17.8328 25.1715 21.6379 21.5363 25.5757L21.5354 25.5767C13.4839 34.3898 7.4977 44.8622 4.01824 56.026L4.01726 56.0293C-0.18616 70.1994 -0.71981 85.5906 3.91461 99.7176Z" fill="#FF5C00" stroke="#FF5C00" stroke-width="0.5" stroke-linejoin="round"/>
<path d="M63.7348 1.18167C63.8172 1.08604 63.8153 0.94404 63.7305 0.850576C63.6457 0.757113 63.5046 0.741496 63.4014 0.814164C27.5356 26.0759 22.0984 75.7852 50.7118 108.289C54.5209 112.621 58.7721 116.639 63.6246 119.875C63.7284 119.944 63.8673 119.927 63.9501 119.833C64.033 119.74 64.0345 119.6 63.9537 119.505C60.2669 115.176 56.9952 110.651 54.089 105.961L54.0881 105.959C32.2337 71.2172 37.0515 32.1725 63.7348 1.18167Z" fill="#FF5C00" stroke="#FF5C00" stroke-width="0.5" stroke-linejoin="round"/>
</g>
<defs>
<clipPath id="clip0_183_61414">
<rect width="129" height="121" fill="white"/>
</clipPath>
</defs>
</svg>
