<svg viewBox="0 0 1862 494" fill="none" xmlns="http://www.w3.org/2000/svg">
<path d="M1392.39 472.487L1765.71 493.176C1813.19 495.808 1854.63 461.298 1860.64 414.127V414.127C1868.8 350.015 1809.16 298.206 1746.82 315.256L1498.64 383.133C1451.85 395.931 1407.08 357.044 1413.21 308.924V308.924C1420.63 250.644 1493.46 228.542 1532.02 272.868L1560.86 306.025C1600.6 351.705 1675.65 328.928 1683.3 268.87V268.87C1688.56 227.546 1656.84 190.779 1615.19 189.926L959.27 176.501C873.042 174.736 853.483 296.584 935.932 321.895V321.895C1004.72 343.012 1060.39 263.837 1017.24 206.251L948.163 114.05C927.679 86.7092 895.825 70.2265 861.674 69.2965L124.562 49.2241C82.4878 48.0784 44.128 73.1872 28.3433 112.205V112.205C2.8721 175.167 45.6696 244.793 113.348 250.497L259.87 262.847C319.899 267.907 354.762 196.495 313.85 152.276L293.451 130.228C282.292 118.168 263.861 116.398 250.612 126.114V126.114C222.736 146.557 242.088 190.594 275.999 183.885L360.062 167.254C411.909 156.996 416.336 84.5536 366.124 68.0591L207.939 16.0962C176.083 5.63157 144.04 31.5231 147.582 64.8666L149.556 83.4474C152 106.461 176.646 119.979 197.367 109.671V109.671C223.703 96.5709 221.262 58.2286 193.479 48.5726L65.6641 4.15157C46.8506 -2.38692 25.9515 3.15539 12.8504 18.1574V18.1574C-18.4752 54.0282 14.8257 108.941 61.1142 97.7441L299.301 40.1284C362.808 24.7665 427.586 60.2022 448.902 121.966L458.829 150.729C486.928 232.144 574.37 276.772 656.786 251.763L1049.58 132.569C1100.26 117.191 1154.43 142.149 1175.67 190.663L1219.53 290.818C1243.04 344.517 1320.55 340.362 1338.19 284.459L1339.88 279.112C1355.6 229.296 1422.62 221.075 1449.91 265.616V265.616C1480.95 316.275 1428.34 376.782 1373.75 353.329V353.329C1311.51 326.587 1332.29 233.369 1399.98 236.055L1599.11 243.957" stroke="rgba(171, 171, 171, 1)"/>
</svg>
